<?xml version="1.0" encoding="UTF-8"?>
<svg id="Layer_1" data-name="Layer 1" xmlns="http://www.w3.org/2000/svg" viewBox="0 0 262.75 246.58">
  <defs>
    <style>
      .cls-1 {
        fill: none;
      }

      .cls-2 {
        opacity: .3;
      }

      .cls-2, .cls-3 {
        fill: #d09f73;
      }

      .cls-4 {
        fill: #798a3c;
      }

      .cls-5 {
        fill: #f0cfa3;
      }

      .cls-6 {
        fill: #527837;
      }

      .cls-7 {
        fill: #5b6d41;
      }

      .cls-8 {
        fill: #f2eeb6;
      }

      .cls-9 {
        fill: #673f18;
      }

      .cls-10 {
        fill: #e1d8a5;
      }

      .cls-11 {
        fill: #6c468e;
      }

      .cls-12 {
        fill: #56683a;
      }

      .cls-13 {
        fill: #402756;
      }
    </style>
  </defs>
  <path class="cls-5" d="M174.38,181.36c-.66,4.14-1.31,8.28-1.97,12.42-1.04,6.55-2.08,13.11-3.12,19.66-.99,6.23-1.98,12.45-2.97,18.68-6.55,3.27-19.12,8.47-35.71,8.75-17.7.3-31.14-5.15-37.81-8.4-1.53-7.06-3.06-14.11-4.59-21.17-1.22-5.61-2.43-11.23-3.65-16.84-.87-4.02-1.74-8.04-2.61-12.06,30.81-.35,61.62-.7,92.42-1.05Z"/>
  <path class="cls-3" d="M174.38,181.36c-.66,4.14-1.31,8.28-1.97,12.42-10.34,4.25-24.81,8.49-42.36,8.84-19.2.39-34.88-3.99-45.48-8.16-.87-4.02-1.74-8.04-2.61-12.06,30.81-.35,61.62-.7,92.42-1.05Z"/>
  <path class="cls-8" d="M76.44,161.67v23.05s58.07,28.94,103.45-2.1v-21.82s-43.24,25.38-103.45.88Z"/>
  <ellipse class="cls-10" cx="128.17" cy="162.27" rx="52.26" ry="10.93"/>
  <path class="cls-5" d="M174.38,160.89c0,1.21-1.52,2.36-4.24,3.39-7.29,2.76-23.23,4.68-41.72,4.68-17.47,0-32.66-1.71-40.44-4.23-3.52-1.14-5.52-2.45-5.52-3.84,0-4.46,20.58-8.08,45.96-8.08s45.96,3.62,45.96,8.08Z"/>
  <path class="cls-9" d="M170.14,164.28c-7.29,2.76-23.23,4.68-41.72,4.68-17.47,0-32.66-1.71-40.44-4.23.33-3.94,18.62-7.11,41.14-7.11s39.39,2.94,41.02,6.66Z"/>
  <path class="cls-6" d="M77.91,121.24s50.26-25.31,50.61,44.23c0,0-.8.46-1.89.01,0,0,4.1-64.67-48.06-42.96l-.66-1.28Z"/>
  <path class="cls-2" d="M169.29,213.45c-.99,6.23-1.98,12.45-2.97,18.68-6.55,3.27-19.12,8.47-35.71,8.75-17.7.3-31.14-5.15-37.81-8.4-1.53-7.06-3.06-14.11-4.59-21.17,8.6,4.73,23.11,10.85,41.83,11.02,16.55.15,30-4.42,39.25-8.88Z"/>
  <g>
    <g>
      <path class="cls-7" d="M202.54,14.93l-1.81,1.69-.91.84-.9.87-1.79,1.76-1.78,1.82-.89.91c-.3.31-.59.63-.88.94l-1.75,1.89-.22.24-.22.24-.43.49-.87.97-.87.97c-.14.16-.29.32-.43.49l-.43.5c-1.13,1.34-2.28,2.66-3.39,4.05l-1.68,2.07-1.65,2.12c-1.11,1.4-2.17,2.88-3.24,4.32-.54.72-1.06,1.47-1.59,2.22l-1.57,2.23-1.54,2.28-.77,1.14-.38.57-.37.58-1.49,2.33-.75,1.17c-.24.39-.48.79-.72,1.19-.96,1.59-1.94,3.16-2.86,4.79l-1.4,2.42c-.24.4-.46.82-.68,1.22l-.68,1.23c-3.6,6.56-6.9,13.34-9.88,20.22-2.97,6.89-5.62,13.89-7.96,20.91l-.87,2.63-.22.66c-.07.22-.13.44-.2.66l-.4,1.32-.8,2.64-.4,1.32-.37,1.32-.74,2.64-.37,1.32c-.12.44-.25.88-.36,1.32l-1.34,5.26c-.05.22-.11.44-.17.66l-.15.66-.3,1.31-.61,2.62c-.42,1.75-.76,3.49-1.13,5.23l-.54,2.61c-.09.44-.17.87-.25,1.3l-.24,1.3-.48,2.59-.24,1.3-.12.65-.1.64-.82,5.15c-.07.43-.14.86-.2,1.29l-.17,1.28-.34,2.55-.34,2.55c-.06.43-.1.85-.15,1.27l-.14,1.27-.55,5.05.72-5.11.18-1.28c.06-.43.11-.85.19-1.28l.41-2.57.41-2.57.2-1.28c.07-.43.15-.86.23-1.29l.93-5.16.12-.65.13-.65.26-1.3.52-2.59.26-1.3c.09-.43.17-.86.27-1.3l.58-2.6c.39-1.74.75-3.47,1.19-5.21l.64-2.61.32-1.3.16-.65c.05-.22.12-.44.17-.65,1.79-6.96,3.85-13.95,6.2-20.9,2.34-6.95,4.98-13.87,7.93-20.67,2.93-6.81,6.18-13.51,9.71-20.01,3.52-6.51,7.35-12.8,11.39-18.84l1.54-2.24c.52-.74,1.02-1.5,1.55-2.22l1.58-2.19.39-.55c.13-.18.26-.36.4-.54l.8-1.07,1.61-2.14,1.64-2.09c1.09-1.41,2.21-2.75,3.32-4.11l.42-.51c.14-.17.28-.33.42-.5l.85-.99.85-.99.42-.5.21-.25.22-.24,1.72-1.93c.29-.32.57-.65.86-.96l.87-.94,1.75-1.88,1.77-1.83.88-.92.89-.89,1.78-1.78Z"/>
      <path class="cls-13" d="M209.59,26.93c1.82-3.13,3.64-6.27,5.45-9.4.31-.54.62-1.26.22-1.74-.71.19-1.33.62-1.9,1.07-3.45,2.76-5.8,6.86-3.77,10.07Z"/>
      <path class="cls-13" d="M199.68,32.69c2.34-1.03,4.7-1.99,7.09-2.88.84-.31,1.7-.62,2.6-.69,1.49-.11,3.01.51,4,1.62.31.35.59.81.47,1.26-.13.5-.66.77-1.14.96-1.72.7-3.57,1.32-5.41,1.05-1.85-.26-3.48-1.39-7.63-1.33Z"/>
      <path class="cls-13" d="M189.04,42.56c3.61-.41,7.16-1.29,10.54-2.61.53-.21,1.17-.72.88-1.21-3.03-.8-6.44-.01-8.81,2.04,1.82-.92,3.27-2.56,3.95-4.48-2.04.05-3.73,1.52-5.22,2.91,1.69-2.35,2.95-5.01,3.73-7.8.26-.93.34-2.18-.53-2.62-.84-.43-1.8.33-2.36,1.1-1.88,2.57-2.59,5.78-3.25,8.9-.3,1.43-.61,2.93,1.07,3.78Z"/>
      <path class="cls-13" d="M178.99,50.67c3.13-1.26,6.29-2.44,9.48-3.54.6-.21,1.37-.36,1.77.13-1.4,1.84-3.74,2.64-5.95,3.35.94.23,1.87.53,2.77.89.71.29,1.51.74,1.58,1.51.08.74-.58,1.35-1.25,1.67-1.68.8-3.69.54-5.42-.17-1.72-.7-3.24-1.81-2.98-3.84Z"/>
      <path class="cls-13" d="M174.13,56.59c1.32-4.29,2.39-8.65,3.2-13.06.09-.48.16-1.01-.12-1.41-.36-.51-1.16-.51-1.68-.16-.52.34-.82.92-1.09,1.48-1.69,3.5-3,7.42-2.23,11.22.33,1.62,1.44,3.48,1.91,1.93Z"/>
      <path class="cls-13" d="M164.46,64.88c1.81-2.94,3.76-5.8,5.84-8.57.14-.18.31-.38.54-.38.38,0,.5.52.47.91-.37,3.71-3.93,6.23-5.46,9.63,1.88-1.61,3.98-2.96,6.23-3.99,1.2-.55,2.6-1.01,3.82-.52.22.09.44.22.54.43.1.2.07.44.02.66-.38,1.74-1.9,3.02-3.51,3.79-1.61.77-3.38,1.15-5,1.9,1.61-.82,3.49-1.09,5.27-.76.5.09,1.01.24,1.36.61.5.53.5,1.39.16,2.04-.34.64-.95,1.1-1.58,1.45-1.41.79-3.08,1.18-4.66.84-2.57-.55-6.73-3.65-4.03-8.04Z"/>
      <path class="cls-13" d="M156.85,81.5c2.16-.08,4.33-.15,6.47-.44,1.28-.17,2.65-.47,3.51-1.44.86-.97.8-2.8-.39-3.3-.71-.3-1.53-.04-2.23.28-2.07.92-3.93,2.3-5.43,4,1.08-1.29,2.01-2.74,2.41-4.38s.21-3.46-.79-4.82c-.18-.25-.41-.49-.71-.55-.62-.14-1.11.51-1.39,1.08-1.2,2.41-2.01,5.02-2.4,7.69-.19,1.34-.26,2.77.94,1.86Z"/>
      <path class="cls-13" d="M147.31,100.72c-.98-3.9-1.78-7.85-2.37-11.83-.07-.45-.11-.97.21-1.29.34-.35.94-.28,1.32.02s.58.76.76,1.21c.84,2.15,1.37,4.43,1.58,6.73.08.89.02,1.95-.73,2.43,1.17-2.19,2.43-4.34,3.77-6.43.56-.87,1.52-1.86,2.45-1.4.76.38.81,1.44.65,2.27-.51,2.68-2.09,5.15-4.31,6.74,2.87-1.47,4.94-4.36,8.02-5.3.88-.27,1.93-.33,2.62.28-1.51,2.53-3.88,4.46-6.5,5.81-2.62,1.35-5.47,2.16-7.45.78Z"/>
      <path class="cls-13" d="M141.48,114.69c-.43-3.67-1.03-7.32-1.82-10.93-.25-1.13-.55-2.33-1.42-3.09-.87-.76-2.48-.75-2.97.29-.21.45-.17.98-.09,1.48.87,4.99,5.73,8.91,6.31,12.25Z"/>
      <path class="cls-13" d="M143.6,109.4c2.43-2.31,5.05-4.41,7.84-6.26,1.23-.82,2.54-1.61,4.01-1.75.89-.09,1.94.19,2.28,1.01.24.6.03,1.29-.3,1.84-.94,1.56-2.7,2.4-4.39,3.07-3.77,1.5-7.71,2.58-9.44,2.1Z"/>
      <path class="cls-11" d="M214.31,23.23c1.75-.18,3.51-.45,5.15-1.09,1.64-.64,3.16-1.69,4.11-3.17.2-.31.36-.73.13-1.01-.24-.28-.68-.18-1.02-.05-3.06,1.15-5.87,2.97-8.37,5.32Z"/>
      <path class="cls-11" d="M209.41,25.58c2.2-.75,4.27-1.85,6.49-2.52.75-.23,1.54-.41,2.32-.28.29.05.63.19.67.48.02.14-.04.28-.1.4-.4.78-1.18,1.3-2.01,1.59-.83.28-1.71.35-2.58.42-1.63.12-3.27.25-4.78-.08Z"/>
      <path class="cls-11" d="M202.99,30.49c2.18-.66,3.95-2.53,4.48-4.75.08-.33,0-.82-.34-.8-.14,0-.25.12-.35.22l-1.66,1.75c.49-1.56.99-3.14,1.06-4.77.02-.39,0-.79-.14-1.16-.15-.36-.47-.68-.85-.72-.49-.06-.94.3-1.26.68-1.19,1.37-1.73,3.19-2.05,4.98-.34,1.89-.47,3.81,1.11,4.57Z"/>
      <path class="cls-11" d="M196.94,35.11c.16-2.24.32-4.53,1.18-6.61.18-.44.4-.88.75-1.2.08-.08.18-.15.29-.16.28-.02.43.31.48.59.35,2.01-.54,4.01-1.41,5.85-.33.7-.69,1.43-1.29,1.53Z"/>
      <path class="cls-11" d="M195.19,37.39c2.07-1.64,4.06-3.68,6.66-4.09.98-.16,2-.06,2.94.27.08.03.17.07.22.14.1.16-.06.36-.21.48-2.36,1.94-5.39,3.05-9.61,3.2Z"/>
      <path class="cls-11" d="M187.69,42.6c1.85-1.47,3.65-3.02,5.38-4.63.33-.31.66-.62.9-1,.21-.34.34-.71.47-1.09.23-.69.47-1.37.7-2.06.19-.55.38-1.15.22-1.71-.89-.13-1.8.26-2.49.84-.68.59-1.17,1.37-1.61,2.16-1.28,2.3-2.21,4.78-3.57,7.48Z"/>
      <path class="cls-11" d="M184.06,47.63c1.45-2.34,4.04-3.93,6.78-4.15.39-.03.87,0,1.04.36.22.44-.23.91-.64,1.18-1.82,1.2-3.87,2-5.89,2.8,3.02-.83,6.04-1.66,9.11-2.27.76-.15,1.8-.12,1.99.63.13.5-.26.98-.67,1.3-1.35,1.07-3.12,1.44-4.83,1.66-3.33.44-6.7.47-6.89-1.51Z"/>
      <path class="cls-11" d="M178.02,53.34c-.16-3.27-.31-6.58.38-9.77.29-1.33.76-2.69,1.76-3.61.37-.34.94-.62,1.37-.35.31.2.41.6.47.96.41,2.62-.13,5.38-1.49,7.66.63-1.23,1.4-2.39,2.29-3.44.43-.51.95-1.02,1.61-1.13.19-.03.4-.02.57.08.25.15.37.45.4.74.09.79-.28,1.56-.68,2.25-1.52,2.63-3.66,4.91-6.69,6.6Z"/>
      <path class="cls-11" d="M169.53,61.22c2.83.47,5.75.94,8.56.31,2.8-.63,5.49-2.65,6.02-5.47.05-.27.08-.57-.05-.81-.2-.4-.72-.52-1.16-.54-.79-.03-1.58.1-2.31.39-.83.33-1.56.85-2.29,1.36-2.71,1.92-5.42,3.84-8.78,4.77Z"/>
      <path class="cls-11" d="M172.26,60.27c-.48-2.78-1.54-5.43-2.08-8.2-.55-2.77-.52-5.82,1-8.2.2-.31.46-.62.82-.66.38-.04.71.25.99.53.85.85,1.7,1.82,1.85,3.01.08.65-.06,1.3-.2,1.93-.7,3.25-1.4,6.5-2.1,9.74-.24,1.12-.56,2.35-.28,1.84Z"/>
      <path class="cls-11" d="M163.02,73.66c2.65-2.8,5.41-5.79,6.24-9.55.05-.24.09-.52-.06-.72-.21-.29-.66-.22-.99-.09-2.42.92-3.81,3.42-4.99,5.73,1.67-2.66,2.44-5.87,2.17-9-.08-.88-.25-1.8-.81-2.49s-1.6-1.05-2.36-.6c-.45.27-.72.75-.93,1.23-1.19,2.7-1.17,5.78-.88,8.72.29,2.94.82,5.89,2.62,6.76Z"/>
      <path class="cls-11" d="M157.12,81.36c1.85-2.54,3.25-5.39,5.13-7.9,1.89-2.51,4.44-4.74,7.54-5.28.66-.11,1.6.08,1.59.75,0,.18-.08.34-.16.5-1.37,2.66-3.96,4.45-6.53,5.99-2.56,1.54-5.27,3.03-7.57,5.94Z"/>
      <path class="cls-11" d="M154.55,86.88c.58-4.99.43-10.3-2.05-14.66-.32-.57-.83-1.19-1.48-1.11-.71.09-1.02.95-1.11,1.66-.53,4.26,1.29,8.44,4.64,14.11Z"/>
      <path class="cls-11" d="M155.7,84.1c3.41-2.58,6.86-5.19,10.8-6.85,1.22-.52,2.66-.93,3.83-.3.28.15.55.38.63.7.11.45-.21.88-.53,1.22-2.03,2.13-4.88,3.28-7.71,4.09-2.83.81-5.76,1.35-7.02,1.14Z"/>
      <path class="cls-11" d="M149.91,93.67c.07-3.76-1.01-7.7.44-11.16.15-.37.47-.79.85-.68.16.04.28.18.39.31,1.18,1.47,1.44,3.51,1.11,5.36-.33,1.85-1.18,3.57-2.8,6.18Z"/>
      <path class="cls-11" d="M153.98,88.84c4.26-3.49,8.68-7.07,13.99-8.57.61-.17,1.34-.29,1.79.15-.31,2.16-2.47,3.51-4.43,4.46-4.54,2.21-9.28,3.99-11.35,3.96Z"/>
      <path class="cls-11" d="M145.67,107.74c-.04-3.17-.2-6.34-.49-9.51-.22-2.42-.63-5.07-2.47-6.66-.32-.28-.69-.52-1.11-.59-.93-.17-1.81.53-2.31,1.33-1.46,2.36-.65,5.43.42,7.99,1.51,3.62,3.45,7.05,5.96,7.44Z"/>
      <path class="cls-11" d="M141,117.17c-1-3.32-1.48-6.8-1.39-10.26.01-.54.09-1.17.56-1.43.34-.19.76-.11,1.12.03,1.45.54,2.56,1.89,2.81,3.42.33,2-.72,4.19.19,6,1.6-2.47,3.2-4.95,5.2-7.11,1.24-1.34,2.75-2.6,4.57-2.8,1.81-.21,3.88,1.1,3.86,2.92-.01,1.34-1.06,2.42-2.08,3.29-2.44,2.09-5.12,3.89-7.98,5.35-2.15,1.1-4.63,2.03-6.87.6Z"/>
      <path class="cls-11" d="M147.32,100.78c2.13-1.66,3.86-3.78,5.89-5.56,2.03-1.78,4.52-3.27,7.23-3.25.16,0,.34.02.45.13.21.23,0,.59-.22.81-4.05,4.28-9.09,7.61-13.35,7.87Z"/>
    </g>
    <g>
      <path class="cls-7" d="M253.82,57.69l-2.08-.23-.36-.04-.88-.1h0l-.34-.04-1.22-.1-.49-.04s0,0,0,0l-.45-.04h0l-.6-.05h0l-.91-.08-2.45-.13-1.22-.07c-.41-.02-.82-.02-1.23-.03h-.13s0,0,0,0l-1.55-.04-.77-.02h-.31s-.31,0-.31,0h-.61s-.92,0-.92,0h-.3s-1.23.01-1.23.01c-.2,0-.41,0-.61,0h-.3s0,.01,0,.01h-.21s0,.01,0,0h-.1c-1.63.08-3.26.1-4.89.24l-.34.02s0,0,0,0l-2.1.15h-.06s-2.37.26-2.37.26l-.89.09h-.02s-.3.03-.3.03c-.2.02-.4.04-.61.08l-.52.07h-.09s-2.42.34-2.42.34c-.1.01-.19.02-.29.04,0,0,0,0,0,0-.2.03-.4.06-.59.09-.51.08-1.02.18-1.52.26l-2.41.42c-.82.16-1.65.33-2.47.51-.61.13-1.22.27-1.83.41-.45.1-.9.21-1.35.32,0,0,0,0,0,0-.79.19-1.58.39-2.36.6h0c-1.16.31-2.32.63-3.47.97h0c-.31.09-.62.18-.93.28-.45.14-.9.28-1.35.42h0c-1.47.47-2.93.96-4.38,1.49h0c-.13.05-.25.09-.38.14,0,0,0,0,0,0-.08.03-.17.06-.25.09-.03.01-.06.02-.09.03-.03,0-.06.02-.08.03-.22.08-.43.16-.65.24,0,0,0,0,0,0-.4.15-.79.3-1.18.45-.24.09-.48.18-.72.28h0c-.45.18-.9.36-1.35.54-1,.41-2,.83-2.99,1.26h0c-.18.08-.36.16-.54.24h0c-.3.13-.61.27-.91.41-2,.91-3.98,1.87-5.93,2.88-.51.26-1.02.54-1.52.81h0c-.19.1-.38.2-.57.31-.4.22-.8.44-1.19.66-.83.46-1.65.93-2.47,1.41h0c-.6.35-1.2.7-1.79,1.06-.99.6-1.98,1.22-2.96,1.85-.81.52-1.62,1.05-2.42,1.59-2.28,1.53-4.51,3.13-6.69,4.79-3.21,2.43-6.32,5-9.33,7.67.26-.81.52-1.62.78-2.43l.08-.08.92-.83.94-.8,1.89-1.59.94-.8c.16-.13.32-.27.48-.4l.49-.38,1.95-1.52c2.26-1.74,4.58-3.42,6.94-5.02h0c1.85-1.25,3.74-2.46,5.66-3.62h0c.2-.12.41-.25.61-.37.77-.46,1.55-.92,2.33-1.36.31-.18.61-.35.92-.52.55-.31,1.11-.61,1.66-.9.91-.49,1.82-.96,2.74-1.42,0,0,0,0,0,0,.56-.28,1.12-.56,1.68-.84,0,0,0,0,0,0,1.29-.62,2.59-1.23,3.9-1.81.63-.28,1.26-.56,1.9-.82h0c.43-.18.85-.36,1.28-.53.58-.24,1.17-.47,1.75-.7,1.01-.4,2.03-.78,3.06-1.15l1.16-.42c.39-.14.77-.29,1.17-.4l1.35-.42.67-.21.34-.11c.76-.25,1.52-.48,2.29-.69.82-.23,1.64-.45,2.46-.68.1-.03.21-.06.31-.08,0,0,0,0,0,0,.29-.08.58-.16.88-.24l1.2-.28.47-.11,1.72-.4.22-.05h0s0,0,0,0l.6-.14.61-.12.81-.16.4-.08.3-.06.9-.17.92-.18.3-.06,2.44-.38c.4-.06.79-.13,1.19-.19h0c.35-.05.69-.1,1.04-.14.07,0,.14-.02.22-.02.08,0,.17-.02.25-.03h0c1.55-.18,3.09-.4,4.65-.49l1.38-.11,1.08-.09,1.25-.06h0l.46-.02.75-.04c1.46-.09,2.92-.09,4.37-.11h0c.18,0,.37,0,.55,0h.57s.04,0,.04,0c.21,0,.41,0,.62.01l1.23.03h.02l1,.02h.22s.62.02.62.02h.31s.31.02.31.02h.04s.03,0,.03,0l2.4.14c.13,0,.25.01.38.02.28.01.57.03.85.05l1.23.11,1.02.09,1.43.13.95.12.7.09.35.04h0l.44.05.52.07h0l.7.09,1.21.19.58.09s0,0,0,0l1.84.29Z"/>
      <path class="cls-13" d="M247.35,57.36c2.44-.94,4.88-1.87,7.33-2.81.42-.16.92-.43.91-.88-.48-.22-1.03-.26-1.56-.26-3.19-.02-6.37,1.22-6.68,3.95Z"/>
      <path class="cls-13" d="M239.18,56.1c1.78.48,3.54,1.01,5.29,1.6.62.21,1.24.42,1.77.79.88.61,1.46,1.65,1.52,2.72.02.34-.04.72-.31.93-.3.22-.72.13-1.08.03-1.29-.39-2.6-.88-3.52-1.86-.92-.99-1.33-2.36-3.68-4.2Z"/>
      <path class="cls-13" d="M228.72,56.83c2.21,1.4,4.61,2.52,7.1,3.31.39.13.98.13,1.04-.28-1.34-1.82-3.61-2.93-5.88-2.85,1.44.31,3,.04,4.25-.73-1.17-.9-2.78-.84-4.25-.73,2.01-.56,3.93-1.47,5.63-2.69.57-.41,1.18-1.07.89-1.71-.28-.62-1.16-.63-1.82-.45-2.22.59-4.07,2.08-5.86,3.53-.82.67-1.67,1.37-1.11,2.61Z"/>
      <path class="cls-13" d="M219.4,56.83c2.33.71,4.64,1.48,6.93,2.31.43.16.94.42.93.88-1.62.4-3.3-.21-4.86-.82.43.56.81,1.14,1.15,1.75.27.48.51,1.1.21,1.57-.29.45-.94.5-1.46.37-1.3-.31-2.32-1.37-2.97-2.55s-1-2.48.07-3.51Z"/>
      <path class="cls-13" d="M213.99,57.95c2.68-1.81,5.26-3.78,7.72-5.89.27-.23.55-.5.57-.85.03-.45-.42-.81-.87-.85-.45-.04-.88.15-1.28.34-2.53,1.2-5.04,2.81-6.34,5.29-.55,1.06-.77,2.61.2,1.95Z"/>
      <path class="cls-13" d="M204.81,58.22c2.35-.83,4.74-1.55,7.16-2.17.16-.04.35-.08.48.03.21.18.05.52-.15.72-1.89,1.92-5.03,1.72-7.43,2.93,1.79-.06,3.58.14,5.31.58.93.24,1.92.61,2.38,1.44.08.15.15.32.11.49-.04.16-.16.28-.29.38-1,.81-2.44.84-3.69.54-1.25-.3-2.42-.88-3.67-1.19,1.28.27,2.46.97,3.31,1.96.24.28.46.6.49.96.04.52-.35,1.01-.83,1.22-.48.21-1.03.19-1.55.1-1.15-.2-2.27-.74-3-1.64-1.19-1.48-2.13-5.1,1.38-6.34Z"/>
      <path class="cls-13" d="M193,64.11c1.25.94,2.5,1.88,3.84,2.69.8.48,1.7.94,2.62.78s1.72-1.21,1.27-2.03c-.26-.49-.84-.71-1.38-.85-1.58-.42-3.25-.49-4.86-.21,1.19-.23,2.37-.63,3.34-1.37.96-.74,1.69-1.85,1.74-3.06,0-.22,0-.46-.15-.63-.29-.36-.86-.21-1.27-.02-1.77.81-3.41,1.91-4.83,3.23-.71.66-1.4,1.44-.32,1.47Z"/>
      <path class="cls-13" d="M178.92,70.59c1.22-2.64,2.56-5.22,4.03-7.72.17-.28.38-.59.7-.63.35-.04.65.27.73.61s-.02.69-.12,1.02c-.5,1.59-1.23,3.11-2.16,4.5-.36.53-.87,1.11-1.51,1.03,1.65-.7,3.33-1.34,5.03-1.91.71-.24,1.7-.35,2.01.33.26.55-.2,1.17-.66,1.57-1.5,1.28-3.51,1.95-5.48,1.83,2.28.48,4.75-.21,6.91.66.61.25,1.23.69,1.35,1.34-1.99.74-4.2.74-6.28.32s-4.05-1.27-4.54-2.94Z"/>
      <path class="cls-13" d="M169.32,75.79c1.42-2.25,2.74-4.58,3.93-6.96.37-.75.74-1.56.6-2.38-.14-.82-1.05-1.55-1.8-1.18-.33.16-.54.47-.72.79-1.77,3.2-.82,7.6-2.01,9.74Z"/>
      <path class="cls-13" d="M172.91,73.78c2.41-.2,4.84-.18,7.24.03,1.06.1,2.16.25,3.04.83.54.35,1.01.99.82,1.6-.13.45-.57.74-1,.89-1.23.45-2.6.13-3.86-.26-2.8-.87-5.5-2.05-6.25-3.1Z"/>
      <path class="cls-11" d="M251.68,57.42c1.06.69,2.17,1.34,3.39,1.72s2.54.48,3.75.08c.25-.08.54-.25.53-.51,0-.26-.3-.41-.55-.49-2.24-.74-4.64-.99-7.11-.8Z"/>
      <path class="cls-11" d="M247.86,56.51c1.58.57,3.24.89,4.79,1.52.52.21,1.05.47,1.43.89.14.16.27.39.16.58-.05.09-.15.14-.24.18-.58.25-1.26.2-1.85-.02s-1.12-.58-1.64-.94c-.97-.67-1.95-1.34-2.65-2.21Z"/>
      <path class="cls-11" d="M242.03,56.37c1.52.62,3.37.37,4.67-.63.19-.15.37-.46.17-.6-.08-.06-.19-.05-.29-.03-.57.08-1.15.16-1.72.23.98-.65,1.98-1.31,2.76-2.2.19-.21.36-.44.44-.71.08-.27.04-.59-.15-.79-.25-.26-.66-.25-1.02-.19-1.29.23-2.42,1.01-3.41,1.87-1.05.91-1.99,1.93-1.45,3.07Z"/>
      <path class="cls-11" d="M236.54,56.22c1.1-1.19,2.23-2.4,3.66-3.18.3-.17.62-.31.97-.33.08,0,.17,0,.24.04.17.11.1.37,0,.55-.72,1.29-2.12,2.01-3.44,2.65-.5.24-1.04.49-1.42.28Z"/>
      <path class="cls-11" d="M234.52,56.7c1.91.01,3.94-.23,5.6.72.62.36,1.15.87,1.53,1.48.03.05.07.11.06.18-.02.14-.2.17-.33.18-2.21.02-4.41-.73-6.85-2.56Z"/>
      <path class="cls-11" d="M227.95,56.24c1.71.01,3.42-.04,5.12-.16.32-.02.65-.05.96-.16.27-.09.51-.25.75-.4.44-.28.89-.56,1.33-.84.36-.22.73-.47.9-.86-.44-.48-1.13-.67-1.78-.65-.65.02-1.28.24-1.88.48-1.76.71-3.41,1.68-5.39,2.59Z"/>
      <path class="cls-11" d="M223.63,57.41c1.87-.66,4.05-.38,5.69.74.23.16.48.4.42.68-.08.35-.54.4-.89.37-1.56-.15-3.08-.63-4.58-1.1,2.07.9,4.14,1.8,6.14,2.85.49.26,1.07.75.83,1.26-.16.34-.59.43-.97.43-1.24,0-2.4-.61-3.47-1.25-2.07-1.26-3.98-2.77-3.19-3.97Z"/>
      <path class="cls-11" d="M217.65,57.89c1.39-1.91,2.81-3.84,4.64-5.32.76-.62,1.64-1.17,2.62-1.23.37-.02.81.08.93.43.09.25-.04.52-.17.75-.96,1.66-2.51,2.96-4.31,3.63.91-.41,1.87-.71,2.85-.9.47-.09,1-.14,1.41.1.12.07.24.17.29.3.08.2,0,.42-.11.6-.31.49-.86.75-1.4.96-2.05.79-4.28,1.1-6.75.68Z"/>
      <path class="cls-11" d="M209.31,58.47c1.38,1.55,2.81,3.14,4.67,4.05,1.86.91,4.29,1,5.86-.35.15-.13.3-.28.34-.48.07-.32-.17-.62-.41-.83-.43-.37-.93-.66-1.47-.83-.61-.19-1.26-.23-1.9-.27-2.39-.15-4.79-.3-7.09-1.3Z"/>
      <path class="cls-11" d="M211.27,59.17c.99-1.78,1.6-3.75,2.55-5.55.95-1.8,2.34-3.51,4.28-4.15.25-.08.54-.14.76,0,.23.15.29.47.32.74.09.86.13,1.79-.33,2.53-.25.4-.62.7-.99,1-1.87,1.51-3.73,3.01-5.6,4.52-.64.52-1.38,1.07-.99.91Z"/>
      <path class="cls-11" d="M200.02,62.5c2.76-.37,5.66-.8,7.83-2.54.14-.11.29-.25.29-.43,0-.26-.27-.42-.52-.5-1.78-.58-3.69.19-5.4.95,2.14-.74,4.03-2.19,5.3-4.07.36-.53.67-1.12.67-1.76,0-.64-.42-1.31-1.06-1.4-.37-.05-.75.1-1.08.27-1.89.98-3.28,2.72-4.45,4.5-1.17,1.78-2.21,3.68-1.59,4.99Z"/>
      <path class="cls-11" d="M193.21,64.16c2.19-.58,4.27-1.56,6.47-2.11,2.2-.56,4.65-.65,6.63.45.42.24.86.77.55,1.14-.08.1-.2.16-.32.21-1.97.88-4.24.7-6.38.41-2.14-.29-4.33-.69-6.95-.09Z"/>
      <path class="cls-11" d="M189.27,66.09c2.59-2.54,4.91-5.59,5.49-9.17.08-.47.07-1.05-.33-1.29-.44-.27-1,.07-1.37.43-2.23,2.15-3.1,5.32-3.79,10.03Z"/>
      <path class="cls-11" d="M191.17,65.05c3.08.1,6.21.2,9.17,1.05.92.26,1.91.69,2.29,1.57.09.21.14.47.04.68-.14.3-.52.4-.85.45-2.11.28-4.23-.37-6.18-1.19-1.96-.83-3.84-1.85-4.46-2.54Z"/>
      <path class="cls-11" d="M183.59,67.8c1.74-2.08,2.92-4.78,5.31-6.07.25-.14.62-.23.79,0,.07.1.08.23.08.35,0,1.36-.78,2.62-1.8,3.51-1.02.89-2.28,1.47-4.37,2.21Z"/>
      <path class="cls-11" d="M188.06,66.94c3.98-.03,8.08-.04,11.74,1.52.42.18.88.45.94.9-1.16,1.07-2.97.85-4.51.5-3.55-.81-7.02-1.96-8.17-2.92Z"/>
      <path class="cls-11" d="M174.82,73.79c1.42-1.8,2.76-3.65,4.03-5.56.97-1.46,1.94-3.13,1.63-4.86-.05-.3-.15-.6-.35-.84-.45-.52-1.26-.53-1.9-.3-1.89.66-2.83,2.75-3.39,4.68-.79,2.72-1.26,5.53-.02,6.88Z"/>
      <path class="cls-11" d="M167.93,76.97c.94-2.32,2.25-4.49,3.87-6.39.25-.3.58-.61.97-.55.28.05.48.29.62.53.57.96.58,2.22.03,3.19-.72,1.27-2.3,2.03-2.61,3.46,2.02-.66,4.04-1.33,6.14-1.64,1.3-.19,2.72-.21,3.84.49s1.68,2.37.84,3.39c-.61.75-1.69.88-2.66.91-2.32.07-4.64-.14-6.91-.61-1.71-.36-3.52-.96-4.13-2.78Z"/>
      <path class="cls-11" d="M178.91,70.62c1.95.03,3.88-.38,5.83-.46,1.95-.08,4.02.21,5.53,1.45.09.07.19.16.19.28.02.22-.27.33-.49.36-4.21.57-8.56.16-11.07-1.63Z"/>
    </g>
    <path class="cls-4" d="M133.32,166.91c1.16-4.89,2.36-9.86,4.88-14.21,1.68-2.9,3.92-5.44,6.29-7.8,4.37-4.36,9.26-8.2,13.47-12.71,3.52-3.77,6.57-8.02,10.49-11.37-7.07,10.37-14.13,20.75-21.2,31.12-2.21,3.25-4.43,6.5-7.03,9.44-1.32,1.49-2.78,2.93-4.62,3.7-1.73.73-4.11,1.28-2.29,1.83Z"/>
    <path class="cls-4" d="M144.01,108.49c3.91-15.5,1.36-32.51-6.9-46.19.36,6.93.73,13.91,2.29,20.68,1.05,4.54,2.64,9.04,2.57,13.69-.07,4.64-1.64,9.88,2.04,11.82Z"/>
    <path class="cls-4" d="M137.11,140.9c-3.26-12.35-7.16-24.52-11.68-36.47.86,9.45,2.83,18.8,5.88,27.79.53,1.55,1.1,3.12,2.08,4.43,1.39,1.86,3.53,3.11,3.72,4.25Z"/>
    <path class="cls-4" d="M132.67,166.54c-2.78-10-6.96-19.6-12.39-28.44-4-6.51-9.48-13.11-17.05-14.16,7.15,14.69,14.89,30.08,29.45,42.6Z"/>
    <path class="cls-4" d="M134.59,154.4c-3.26-13.86-8.74-27.2-16.15-39.35-.09,4.6.32,9.24,1.72,13.62,1.28,3.99,3.35,7.66,5.41,11.31,1.93,3.42,3.87,6.84,5.8,10.27.48.85,1.21,1.83,3.22,4.16Z"/>
    <path class="cls-12" d="M163.13,114.2c-2.99,2.52-5.88,5.11-8.63,7.84-1.36,1.38-2.71,2.76-4,4.21-1.3,1.43-2.56,2.9-3.77,4.41-2.44,3.01-4.78,6.11-7.15,9.2-.59.77-1.17,1.54-1.72,2.33-.55.79-1.06,1.6-1.5,2.44-.89,1.68-1.48,3.56-1.36,5.52-.22-.95-.24-1.96-.1-2.95.14-.99.44-1.95.81-2.87.77-1.84,1.84-3.53,2.95-5.14,2.21-3.21,4.47-6.41,6.94-9.45,1.25-1.51,2.54-3,3.89-4.42,1.36-1.41,2.76-2.8,4.23-4.1,2.93-2.61,6.06-4.99,9.4-7.02Z"/>
    <path class="cls-12" d="M121.72,83.19c2.68,3.36,5.24,6.8,7.58,10.41,1.19,1.8,2.28,3.65,3.33,5.54,1.04,1.9,1.98,3.84,2.84,5.83,1.69,3.99,2.91,8.21,3.44,12.52.54,4.3.36,8.73-.83,12.87.59-4.26.43-8.53-.3-12.7-.73-4.17-2.02-8.22-3.66-12.12-.81-1.96-1.73-3.87-2.71-5.76-.96-1.89-2.02-3.74-3.08-5.59-2.15-3.69-4.44-7.31-6.62-11.01Z"/>
    <path class="cls-1" d="M154.66,85.92c-.04.13-.08.26-.13.39-.26.18-.46.11.13-.39Z"/>
    <path class="cls-11" d="M159.94,116.89c.47-2.81,1.8-5.46,3.76-7.52.36-.38.83-.77,1.35-.69-.03.41-.03.9.31,1.13.14.09.3.12.47.15.41.06.82.08,1.21.21s.76.41.87.81c.12.4-.04.82-.06,1.24-.03.52.16,1.03.14,1.56-.03,1.03-.88,1.88-1.83,2.27-.95.39-2,.41-3.03.49-1.02.07-2.09.22-3.2.36Z"/>
    <path class="cls-11" d="M159.43,117.07c1.01-1.31,2-2.65,2.71-4.14.71-1.5,1.12-3.16.94-4.81-.02-.18-.05-.37-.18-.49-.17-.17-.45-.15-.68-.07-.83.32-1.14,1.3-1.35,2.16-.6,2.46-1.2,4.91-1.43,7.35Z"/>
    <path class="cls-12" d="M157.49,118.49c-.24-2.08.46-4.25,1.87-5.79.46-.5,1.17-.97,1.78-.67.69.34.78,1.45,1.52,1.66.12.03.24.04.35.08.32.12.46.5.52.85.06.34.08.71.3.98.14.16.34.27.42.47.16.37-.18.76-.51.99-1.89,1.32-4.29,1.63-6.26,1.44Z"/>
    <path class="cls-11" d="M124.68,86.49c-1.58-4.43-2.77-8.98-4.23-13.45-.21-.65-.44-1.32-.87-1.85-.43-.54-1.11-.92-1.79-.82-.83.13-1.38.91-1.83,1.62-.69,1.09-1.4,2.25-1.48,3.54-.02.35,0,.72-.17,1.02-.13.22-.35.37-.56.51-.48.32-.95.63-1.43.95-.17.11-.34.24-.39.43-.04.18.05.37.15.53.88,1.42,2.5,2.19,4.08,2.71,1.58.52,3.25.88,4.66,1.78,1.43.92,2.48,2.33,3.86,3.03Z"/>
    <path class="cls-11" d="M125.83,88.33c-1.63-1.12-2.66-2.95-4.3-4.06-1.06-.72-2.32-1.1-3.57-1.42-2.47-.63-5.29-1-7.42.42.85,1.32,2.59,1.66,4.15,1.81,3.05.3,6.28.36,11.13,3.24Z"/>
    <path class="cls-11" d="M125.29,89.01c-3.06-4.2-5.03-9.19-5.65-14.34-.12-1.01-.14-2.18.6-2.89.17-.16.4-.29.63-.24.18.05.31.2.43.35,3.27,4.32,3.71,10.09,4,17.11Z"/>
    <path class="cls-12" d="M128.1,92.58c-.34-4.62-.7-9.29-2.12-13.7-.26-.82-.79-1.79-1.65-1.73-.66.05-1.1.7-1.36,1.31-.32.72-.55,1.48-.69,2.26-.05.3-.12.64-.39.78-.17.09-.37.08-.56.06-.66-.05-1.4,0-1.85.49-.44.48-.44,1.27-.92,1.71-.35.33-.94.47-1.05.93-.09.37.2.72.48.98,2.83,2.64,6.78,3.81,10.11,6.89Z"/>
  </g>
  <g>
    <path class="cls-13" d="M140.34,21.97c.9-3.51,1.79-7.02,2.69-10.53.15-.61.44-1.33,1.06-1.4.38.63.52,1.37.61,2.1.54,4.38-.66,8.96-4.36,9.83Z"/>
    <path class="cls-13" d="M143.38,33.02c-.95-2.37-1.96-4.71-3.05-7.03-.38-.82-.78-1.64-1.38-2.31-.99-1.12-2.51-1.74-3.99-1.65-.47.03-.99.17-1.22.57-.26.45-.07,1.01.14,1.49.74,1.71,1.63,3.44,3.13,4.54,1.5,1.1,3.45,1.45,6.38,4.39Z"/>
    <path class="cls-13" d="M144.07,47.52c-2.29-2.82-4.21-5.94-5.7-9.24-.24-.52-.34-1.33.21-1.48,2.73,1.55,4.61,4.5,4.87,7.63-.66-1.93-.54-4.12.32-5.97,1.42,1.46,1.6,3.7,1.7,5.73.44-2.86,1.4-5.64,2.79-8.18.47-.85,1.29-1.79,2.21-1.5.9.29,1.06,1.5.92,2.44-.46,3.15-2.2,5.94-3.91,8.63-.78,1.23-1.62,2.52-3.41,1.95Z"/>
    <path class="cls-13" d="M145.56,60.35c-1.35-3.09-2.78-6.15-4.29-9.16-.28-.57-.73-1.22-1.35-1.14-.29,2.29.82,4.51,1.9,6.55-.83-.5-1.7-.93-2.6-1.3-.71-.29-1.6-.52-2.19-.03-.57.48-.53,1.37-.28,2.07.64,1.75,2.26,2.97,3.98,3.67,1.72.7,3.58.98,4.82-.66Z"/>
    <path class="cls-13" d="M144.89,67.97c2.06-3.98,4.35-7.85,6.86-11.57.27-.4.6-.84,1.07-.92.61-.11,1.18.45,1.31,1.06.13.61-.06,1.23-.26,1.82-1.24,3.68-3.05,7.39-6.27,9.57-1.37.93-3.46,1.48-2.72.04Z"/>
    <path class="cls-13" d="M145.99,80.66c.76-3.37,1.38-6.78,1.83-10.2.03-.23.05-.49-.12-.65-.28-.27-.73.02-.97.32-2.34,2.91-1.56,7.2-2.84,10.7-.21-2.47-.77-4.9-1.65-7.21-.47-1.24-1.14-2.54-2.37-3.05-.22-.09-.47-.15-.69-.07-.21.08-.36.26-.48.45-.95,1.51-.76,3.49-.15,5.16.61,1.67,1.61,3.19,2.23,4.86-.58-1.71-1.74-3.22-3.23-4.23-.42-.28-.89-.53-1.4-.51-.73.03-1.33.65-1.54,1.34-.21.7-.09,1.45.11,2.15.46,1.55,1.38,3,2.74,3.86,2.22,1.41,7.37,2.1,8.5-2.92Z"/>
    <path class="cls-13" d="M139.79,97.86c-1.49-1.57-2.98-3.14-4.32-4.85-.8-1.02-1.56-2.19-1.5-3.48.06-1.29,1.38-2.56,2.59-2.08.72.28,1.11,1.04,1.4,1.76.83,2.11,1.2,4.4,1.07,6.66.13-1.68.48-3.37,1.34-4.81s2.28-2.62,3.94-2.88c.3-.05.63-.06.89.1.54.34.43,1.14.24,1.75-.83,2.56-2.08,5-3.67,7.17-.8,1.09-1.75,2.16-1.98.67Z"/>
    <path class="cls-13" d="M133.14,118.27c3.44-2.1,6.77-4.36,9.98-6.79.36-.27.76-.61.76-1.07,0-.48-.48-.86-.96-.91s-.95.14-1.39.34c-2.11.95-4.08,2.2-5.84,3.7-.68.58-1.39,1.38-1.18,2.25.7-2.39,1.3-4.8,1.81-7.23.21-1.01.21-2.39-.77-2.71-.8-.26-1.58.46-2.05,1.16-1.51,2.28-2.11,5.14-1.64,7.83-1.02-3.06-.48-6.57-2.02-9.4-.44-.81-1.15-1.58-2.06-1.64-.69,2.86-.35,5.9.58,8.7.92,2.79,2.4,5.37,4.78,5.77Z"/>
    <path class="cls-13" d="M127.53,132.32c2.87-2.32,5.86-4.5,8.95-6.53.97-.63,2.03-1.28,3.18-1.21,1.15.07,2.3,1.2,1.92,2.29-.16.47-.57.82-.97,1.12-4.12,2.95-10.33,2.35-13.08,4.33Z"/>
    <path class="cls-13" d="M129.72,127.06c-.12-3.35-.52-6.68-1.21-9.96-.3-1.44-.69-2.93-1.63-4.06-.57-.68-1.52-1.23-2.34-.88-.59.25-.92.9-1.07,1.52-.42,1.77.25,3.6.98,5.27,1.64,3.71,3.7,7.25,5.27,8.1Z"/>
    <path class="cls-11" d="M139.55,16.02c-1.13-1.35-2.19-2.78-2.91-4.38-.72-1.61-1.07-3.42-.72-5.14.07-.36.25-.78.62-.81.36-.03.61.35.77.68,1.38,2.96,2.11,6.23,2.25,9.66Z"/>
    <path class="cls-11" d="M141.42,21.13c-1.04-2.08-1.75-4.31-2.87-6.34-.38-.69-.82-1.37-1.46-1.82-.24-.17-.58-.3-.82-.12-.11.09-.17.22-.21.36-.25.84-.07,1.76.33,2.54.39.78.98,1.45,1.55,2.11,1.08,1.23,2.16,2.46,3.47,3.28Z"/>
    <path class="cls-11" d="M142.56,29.13c-1.1-2-1.05-4.58.12-6.53.17-.29.57-.59.8-.34.09.1.1.26.09.4l-.04,2.41c.74-1.46,1.49-2.93,2.58-4.15.26-.29.55-.57.91-.72.36-.15.81-.16,1.12.08.4.3.46.87.43,1.37-.11,1.81-1,3.49-2.02,4.99-1.08,1.59-2.34,3.05-3.99,2.49Z"/>
    <path class="cls-11" d="M143.64,36.66c1.46-1.71,2.94-3.46,3.79-5.54.18-.44.33-.91.3-1.38,0-.11-.03-.23-.1-.32-.18-.21-.53-.08-.75.08-1.65,1.19-2.42,3.24-3.09,5.16-.25.73-.5,1.51-.15,2Z"/>
    <path class="cls-11" d="M143.3,39.52c-.33-2.62-.32-5.46-1.89-7.59-.59-.8-1.39-1.45-2.29-1.86-.08-.04-.17-.07-.25-.05-.19.05-.21.3-.19.49.33,3.04,1.71,5.95,4.62,9.01Z"/>
    <path class="cls-11" d="M145,48.49c-.29-2.35-.49-4.71-.6-7.07-.02-.45-.04-.9.06-1.34.09-.39.26-.75.43-1.1.31-.65.63-1.31.94-1.96.25-.53.53-1.08,1.04-1.37.73.54,1.11,1.44,1.18,2.34.08.9-.12,1.8-.36,2.67-.7,2.53-1.77,4.96-2.69,7.84Z"/>
    <path class="cls-11" d="M144.08,54.62c.6-2.68-.14-5.63-1.93-7.71-.26-.3-.63-.6-1-.47-.46.16-.47.81-.37,1.29.46,2.13,1.36,4.13,2.25,6.12-1.57-2.71-3.15-5.41-4.91-8-.44-.64-1.21-1.35-1.87-.94-.44.27-.5.88-.44,1.4.21,1.71,1.22,3.21,2.28,4.57,2.07,2.64,4.45,5.03,5.98,3.74Z"/>
    <path class="cls-11" d="M144.38,62.93c2.4-2.22,4.83-4.48,6.57-7.24.72-1.15,1.34-2.45,1.27-3.81-.03-.51-.24-1.1-.74-1.21-.36-.08-.71.14-1.01.36-2.13,1.59-3.68,3.93-4.3,6.51.42-1.32.68-2.69.77-4.06.05-.67.04-1.39-.36-1.93-.12-.16-.27-.3-.46-.35-.28-.07-.58.07-.8.25-.62.5-.89,1.31-1.09,2.08-.76,2.95-.82,6.07.16,9.4Z"/>
    <path class="cls-11" d="M144.94,74.5c-2.35-1.65-4.77-3.36-6.33-5.77-1.56-2.41-2.07-5.74-.47-8.13.15-.23.34-.46.6-.55.43-.14.87.13,1.21.43.58.53,1.06,1.18,1.37,1.9.36.81.52,1.7.68,2.57.59,3.27,1.18,6.54,2.93,9.55Z"/>
    <path class="cls-11" d="M143.65,71.91c2.29-1.65,4.9-2.8,7.23-4.4,2.33-1.59,4.45-3.79,5.02-6.55.07-.36.11-.77-.13-1.05-.25-.3-.69-.32-1.07-.32-1.2.01-2.49.11-3.43.85-.51.41-.87.97-1.21,1.52-1.77,2.81-3.55,5.62-5.32,8.43-.61.97-1.24,2.08-1.09,1.51Z"/>
    <path class="cls-13" d="M127.78,73.58c.7-3.56,1.4-7.11,2.1-10.67.12-.61.37-1.35.98-1.45.41.61.59,1.34.72,2.06.78,4.35-.16,8.98-3.81,10.06Z"/>
    <path class="cls-13" d="M131.43,84.44c-1.08-2.31-2.22-4.6-3.43-6.85-.43-.79-.87-1.59-1.5-2.23-1.05-1.06-2.6-1.6-4.08-1.42-.47.06-.98.22-1.19.64-.24.46-.01,1.01.22,1.48.83,1.66,1.81,3.34,3.37,4.36,1.56,1.02,3.53,1.25,6.61,4.03Z"/>
    <path class="cls-13" d="M132.91,98.88c-2.44-2.69-4.53-5.69-6.21-8.91-.26-.51-.41-1.31.13-1.49,2.81,1.4,4.85,4.24,5.28,7.35-.77-1.89-.77-4.08,0-5.97,1.5,1.38,1.8,3.6,2.01,5.63.29-2.88,1.08-5.71,2.34-8.32.42-.87,1.19-1.86,2.13-1.62.92.23,1.14,1.44,1.05,2.38-.28,3.17-1.87,6.05-3.42,8.83-.71,1.28-1.48,2.6-3.3,2.13Z"/>
    <path class="cls-13" d="M135.12,111.61c-1.52-3.01-3.12-5.98-4.79-8.91-.31-.55-.79-1.18-1.42-1.06-.16,2.31,1.07,4.45,2.26,6.44-.86-.45-1.75-.84-2.67-1.16-.73-.25-1.62-.43-2.19.09-.55.51-.46,1.4-.16,2.08.74,1.71,2.42,2.84,4.18,3.45,1.76.61,3.63.78,4.78-.92Z"/>
    <path class="cls-13" d="M134.87,119.26c1.84-4.09,3.91-8.08,6.21-11.93.25-.42.55-.87,1.02-.98.6-.14,1.2.38,1.37.98.16.6,0,1.23-.16,1.83-1.03,3.74-2.64,7.55-5.73,9.9-1.31,1-3.38,1.67-2.71.19Z"/>
    <path class="cls-11" d="M126.66,67.69c-1.2-1.29-2.34-2.65-3.15-4.21-.81-1.56-1.26-3.35-1-5.1.05-.36.21-.79.57-.84.36-.05.63.31.8.63,1.54,2.88,2.46,6.1,2.78,9.52Z"/>
    <path class="cls-11" d="M128.81,72.69c-1.15-2.02-1.99-4.21-3.21-6.18-.41-.67-.89-1.32-1.55-1.74-.25-.16-.6-.27-.82-.08-.11.09-.15.23-.19.37-.21.85.03,1.76.47,2.52.44.76,1.05,1.39,1.67,2.02,1.15,1.17,2.29,2.34,3.64,3.09Z"/>
    <path class="cls-11" d="M130.39,80.61c-1.21-1.93-1.3-4.51-.24-6.53.16-.3.54-.62.78-.38.1.1.11.25.12.39l.09,2.41c.66-1.5,1.32-3.01,2.35-4.28.25-.3.52-.6.87-.77.35-.17.8-.2,1.12.02.41.28.5.84.5,1.34-.01,1.82-.8,3.54-1.74,5.1-.99,1.64-2.16,3.17-3.85,2.7Z"/>
    <path class="cls-11" d="M131.89,88.07c1.36-1.79,2.75-3.62,3.47-5.74.15-.45.28-.92.23-1.4-.01-.11-.04-.23-.12-.31-.19-.2-.53-.05-.75.13-1.59,1.28-2.24,3.37-2.8,5.33-.21.74-.42,1.53-.04,2Z"/>
    <path class="cls-11" d="M131.7,90.94c-.47-2.6-.62-5.44-2.31-7.47-.63-.76-1.46-1.37-2.39-1.73-.08-.03-.17-.06-.26-.04-.18.06-.19.31-.16.5.5,3.01,2.04,5.85,5.11,8.74Z"/>
    <path class="cls-11" d="M133.9,99.81c-.42-2.33-.75-4.67-.99-7.03-.05-.45-.09-.9-.01-1.34.06-.39.22-.76.37-1.12.28-.67.55-1.34.83-2.01.22-.54.47-1.11.96-1.43.76.49,1.19,1.38,1.31,2.27.13.89-.02,1.8-.21,2.68-.55,2.57-1.49,5.06-2.25,7.98Z"/>
    <path class="cls-11" d="M133.32,105.98c.46-2.71-.45-5.61-2.36-7.59-.27-.28-.66-.57-1.02-.42-.45.19-.42.83-.29,1.31.58,2.1,1.59,4.05,2.58,5.99-1.72-2.61-3.44-5.23-5.35-7.71-.47-.61-1.28-1.28-1.92-.84-.43.29-.45.91-.36,1.42.31,1.7,1.4,3.14,2.53,4.43,2.22,2.53,4.73,4.77,6.18,3.41Z"/>
    <path class="cls-11" d="M134.08,114.25c2.27-2.35,4.57-4.74,6.16-7.6.66-1.19,1.2-2.52,1.06-3.87-.05-.51-.3-1.09-.8-1.17-.36-.06-.71.18-.99.41-2.04,1.7-3.45,4.13-3.93,6.74.34-1.34.53-2.72.55-4.1,0-.67-.04-1.39-.47-1.91-.13-.15-.29-.28-.48-.32-.29-.06-.57.1-.79.29-.59.54-.82,1.36-.98,2.14-.59,2.98-.49,6.1.68,9.38Z"/>
    <path class="cls-11" d="M133.85,123.26c2.2-1.77,4.74-3.07,6.98-4.79,2.24-1.72,4.23-4.03,4.65-6.82.05-.36.07-.77-.18-1.04-.26-.28-.7-.28-1.09-.26-1.2.08-2.48.25-3.38,1.04-.49.43-.81,1.01-1.13,1.58-1.61,2.9-3.23,5.81-4.84,8.71-.55,1-1.13,2.14-1.01,1.57Z"/>
    <path class="cls-11" d="M140.88,87.94c.06-3.85.19-7.92,2.23-11.18.13-.21.3-.43.54-.47.35-.05.63.3.78.63,1.08,2.36.33,5.11-.44,7.59.67-3.07,2.37-5.9,4.75-7.94.67-.58,1.44-1.11,2.32-1.21s1.88.37,2.1,1.23c.13.51-.01,1.04-.2,1.53-1.04,2.76-3.21,4.94-5.48,6.84-2.26,1.9-4.71,3.63-6.61,2.99Z"/>
    <path class="cls-11" d="M139.69,97.57c.45-3.11,1.46-6.12,1.87-9.24.41-3.12.15-6.5-1.69-9.05-.39-.54-1.19-1.06-1.66-.58-.12.13-.18.3-.23.47-.89,2.86-.28,5.95.47,8.85.75,2.9,1.65,5.85,1.24,9.54Z"/>
    <path class="cls-11" d="M120.24,117.87c-.58-4.99-.43-10.3,2.05-14.66.32-.57.83-1.19,1.48-1.11.71.09,1.02.95,1.11,1.66.53,4.26-1.29,8.44-4.64,14.11Z"/>
    <path class="cls-11" d="M138.79,100.52c-.63-4.23-1.27-8.51-2.92-12.45-.51-1.22-1.25-2.52-2.52-2.89-.31-.09-.66-.11-.94.06-.39.25-.47.78-.48,1.24-.04,2.94,1.18,5.76,2.64,8.32,1.46,2.56,3.17,4.99,4.21,5.72Z"/>
    <path class="cls-11" d="M124.88,124.66c-.07-3.76,1.01-7.7-.44-11.16-.15-.37-.47-.79-.85-.68-.16.04-.28.18-.39.31-1.18,1.47-1.44,3.51-1.11,5.36.33,1.85,1.18,3.57,2.8,6.18Z"/>
    <path class="cls-11" d="M136.7,105.11c-.6-5.48-1.25-11.13-3.99-15.91-.31-.55-.76-1.14-1.38-1.15-1.29,1.77-.69,4.23.04,6.29,1.69,4.75,3.83,9.35,5.33,10.77Z"/>
    <path class="cls-11" d="M129.4,124.42c2.25-2.24,4.58-4.39,7-6.45,1.85-1.57,4-3.17,6.42-3.02.42.03.86.11,1.21.35.78.53.93,1.64.72,2.57-.61,2.71-3.34,4.33-5.89,5.41-3.61,1.53-7.4,2.62-9.46,1.14Z"/>
    <path class="cls-11" d="M126.13,134.42c3.04-1.67,5.81-3.82,8.18-6.35.37-.39.75-.9.6-1.42-.11-.37-.47-.61-.82-.77-1.41-.63-3.15-.44-4.4.47-1.63,1.2-2.42,3.49-4.34,4.15.59-2.88,1.18-5.78,1.26-8.72.05-1.82-.15-3.78-1.3-5.2-1.15-1.42-3.54-1.93-4.8-.62-.93.97-.93,2.47-.82,3.8.28,3.2.93,6.36,1.95,9.4.77,2.29,1.89,4.69,4.49,5.24Z"/>
    <path class="cls-11" d="M133.1,118.3c-.35-2.68-.11-5.4-.31-8.09-.2-2.69-.94-5.5-2.88-7.38-.12-.11-.26-.23-.42-.22-.31.01-.41.42-.41.73-.11,5.89,1.16,11.8,4.02,14.97Z"/>
    <path class="cls-7" d="M87.22,12.97l1.65,1.29.29.23.69.54h0s.27.21.27.21l.94.79.38.31s0,0,0,0l.35.28h0s.46.38.46.38h0s.7.58.7.58l1.84,1.62.92.81c.3.27.6.56.9.83l.1.09s0,0,0,0l1.13,1.06.56.52.22.21.22.22.43.43.66.65h.01s.2.21.2.21l.87.87c.14.14.29.29.43.43l.2.22h0s.15.16.15.16c0,0,0,0,0,0l.07.07c1.12,1.19,2.26,2.36,3.33,3.59l.22.25s0,0,0,0l1.39,1.58.04.05,1.52,1.84.57.69.02.02.19.23c.13.16.26.31.38.48l.32.41.06.07,1.5,1.93c.06.08.12.15.18.23,0,0,0,0,0,0,.12.16.24.32.36.48.31.42.6.84.91,1.25l1.43,1.99c.47.69.94,1.39,1.41,2.09.34.52.69,1.05,1.02,1.58.25.39.5.78.74,1.18,0,0,0,0,0,0,.43.69.85,1.38,1.27,2.08h0c.62,1.04,1.21,2.08,1.8,3.13h0c.16.28.31.56.46.85.23.41.45.83.67,1.25h0c.72,1.37,1.42,2.74,2.09,4.14h0c.06.12.12.25.18.37,0,0,0,0,0,0,.04.08.08.16.12.24.01.03.03.06.04.09.01.03.03.05.04.08.1.21.2.42.29.63,0,0,0,0,0,0,.18.38.36.76.53,1.15.11.23.21.47.32.7h0c.2.44.39.89.58,1.33.43.99.85,1.99,1.25,3h0c.07.18.15.37.21.55h0c.12.31.24.62.36.93.79,2.05,1.53,4.12,2.22,6.21.18.54.35,1.09.52,1.64h0c.07.21.13.41.19.62.13.44.26.87.39,1.31.27.91.53,1.82.78,2.73h0c.19.67.36,1.34.54,2.02.29,1.13.56,2.26.82,3.39.21.94.42,1.89.61,2.83.55,2.69,1.03,5.39,1.43,8.11.59,3.98,1.01,7.99,1.29,12.01.38-.76.77-1.52,1.15-2.28v-.11s-.08-1.23-.08-1.23l-.12-1.23-.24-2.46-.12-1.23c-.02-.21-.04-.41-.06-.61l-.08-.61-.33-2.45c-.39-2.83-.88-5.64-1.45-8.44h0c-.45-2.19-.95-4.38-1.51-6.55h0c-.06-.23-.12-.46-.18-.69-.23-.87-.47-1.74-.71-2.6-.1-.34-.19-.68-.29-1.02-.18-.6-.36-1.21-.55-1.81-.31-.98-.63-1.96-.96-2.94,0,0,0,0,0,0-.2-.59-.41-1.19-.62-1.78,0,0,0,0,0,0-.48-1.35-.99-2.69-1.52-4.02-.25-.64-.51-1.28-.78-1.92h0c-.18-.43-.36-.86-.54-1.28-.25-.58-.5-1.15-.76-1.72-.45-.99-.91-1.98-1.38-2.96l-.54-1.11c-.18-.37-.35-.75-.55-1.11l-.66-1.24-.33-.62-.17-.32c-.36-.71-.75-1.41-1.15-2.1-.42-.74-.86-1.47-1.28-2.2-.05-.09-.11-.19-.16-.28,0,0,0,0,0,0-.15-.26-.3-.53-.46-.79l-.66-1.05-.26-.4-.95-1.49-.12-.19h0s0,0,0,0l-.33-.51-.35-.51-.47-.68-.23-.34-.18-.25-.52-.76-.53-.77-.17-.25-1.48-1.98c-.24-.32-.48-.64-.72-.96h0c-.21-.28-.42-.56-.64-.83-.05-.06-.09-.11-.14-.17-.05-.07-.11-.13-.16-.2h0c-.98-1.21-1.93-2.45-2.97-3.61l-.91-1.05-.71-.82-.85-.92h0s-.31-.34-.31-.34l-.51-.55c-.98-1.08-2.02-2.11-3.05-3.14h0c-.13-.13-.26-.26-.39-.39l-.4-.41-.03-.03c-.15-.14-.3-.28-.45-.42l-.9-.84-.02-.02-.73-.68-.16-.15-.45-.42-.22-.21-.23-.2-.03-.02-.02-.02-1.81-1.58c-.1-.08-.19-.16-.28-.25-.21-.19-.43-.38-.65-.56l-.95-.78-.8-.65-1.11-.9-.76-.58-.56-.43-.28-.21h0s-.35-.27-.35-.27l-.41-.31h0s-.56-.43-.56-.43l-1-.71-.48-.34s0,0,0,0l-1.52-1.08Z"/>
    <path class="cls-13" d="M92.07,17.26c-1.09-2.38-2.18-4.76-3.26-7.14-.19-.41-.36-.95-.04-1.27.5.18.91.54,1.29.9,2.29,2.22,3.69,5.33,2.01,7.5Z"/>
    <path class="cls-13" d="M98.79,22.08c-1.61-.9-3.24-1.76-4.9-2.57-.58-.28-1.18-.57-1.82-.68-1.06-.18-2.2.16-2.99.88-.25.23-.48.54-.43.88.06.37.42.6.75.77,1.19.62,2.47,1.2,3.81,1.13,1.34-.06,2.6-.75,5.57-.42Z"/>
    <path class="cls-13" d="M105.74,29.92c-2.56-.55-5.05-1.43-7.39-2.61-.37-.19-.79-.6-.55-.93,2.24-.36,4.63.44,6.19,2.08-1.25-.79-2.17-2.07-2.52-3.5,1.46.18,2.57,1.35,3.55,2.45-1.05-1.81-1.77-3.8-2.14-5.86-.12-.69-.09-1.59.56-1.85.64-.25,1.27.36,1.62.95,1.17,1.98,1.46,4.34,1.71,6.62.12,1.05.23,2.15-1.03,2.64Z"/>
    <path class="cls-13" d="M112.4,36.45c-2.16-1.13-4.35-2.19-6.56-3.21-.41-.19-.96-.36-1.28-.03.88,1.42,2.51,2.16,4.04,2.82-.69.1-1.38.25-2.05.45-.53.16-1.13.43-1.24.97-.11.53.32,1.01.78,1.29,1.15.69,2.62.64,3.9.26s2.46-1.07,2.41-2.55Z"/>
    <path class="cls-13" d="M115.48,41.04c-.65-3.17-1.11-6.38-1.39-9.61-.03-.35-.04-.74.19-1,.29-.34.87-.28,1.21,0,.35.28.53.72.68,1.14.97,2.63,1.63,5.54.82,8.22-.35,1.14-1.28,2.4-1.51,1.25Z"/>
    <path class="cls-13" d="M121.84,47.66c-1.1-2.24-2.3-4.43-3.6-6.56-.09-.14-.2-.3-.36-.31-.28-.02-.4.34-.4.62,0,2.69,2.39,4.75,3.25,7.3-1.23-1.29-2.65-2.41-4.2-3.3-.83-.48-1.79-.91-2.71-.64-.16.05-.33.13-.42.27-.08.14-.08.31-.06.47.15,1.28,1.15,2.3,2.26,2.97,1.1.66,2.35,1.06,3.46,1.72-1.1-.7-2.44-1.02-3.73-.91-.36.03-.74.1-1.02.35-.39.35-.45.97-.26,1.45.2.49.61.86,1.04,1.15.96.66,2.13,1.06,3.29.93,1.89-.22,5.09-2.16,3.46-5.49Z"/>
    <path class="cls-13" d="M126.15,60.14c-1.55-.21-3.1-.41-4.62-.77-.91-.21-1.87-.52-2.42-1.28s-.38-2.06.51-2.34c.53-.16,1.1.08,1.58.36,1.42.81,2.67,1.93,3.62,3.25-.69-1-1.25-2.11-1.43-3.31-.17-1.2.09-2.5.9-3.4.15-.16.33-.32.55-.35.46-.05.76.45.92.87.69,1.82,1.1,3.75,1.19,5.69.05.97,0,2.01-.81,1.27Z"/>
    <path class="cls-13" d="M131.67,74.61c.98-2.73,1.82-5.52,2.53-8.34.08-.32.15-.69-.06-.94-.22-.27-.66-.26-.95-.08s-.47.51-.63.82c-.75,1.49-1.3,3.08-1.6,4.73-.12.63-.15,1.4.36,1.8-.69-1.66-1.44-3.29-2.26-4.89-.34-.67-.96-1.44-1.66-1.17-.57.22-.68.97-.62,1.58.18,1.96,1.14,3.85,2.63,5.14-1.96-1.25-3.24-3.47-5.39-4.37-.61-.25-1.36-.37-1.9.02.91,1.92,2.48,3.47,4.26,4.62s3.78,1.93,5.3,1.08Z"/>
    <path class="cls-13" d="M134.88,85.05c.56-2.61,1.25-5.19,2.07-7.72.26-.79.56-1.64,1.24-2.12.68-.49,1.84-.37,2.12.42.12.34.06.72-.04,1.07-.98,3.52-4.74,6-5.38,8.36Z"/>
    <path class="cls-13" d="M133.73,81.11c-1.58-1.83-3.32-3.52-5.2-5.05-.82-.67-1.71-1.33-2.76-1.54-.63-.12-1.41,0-1.71.57-.22.41-.11.92.09,1.34.57,1.18,1.77,1.91,2.94,2.51,2.61,1.34,5.36,2.39,6.63,2.16Z"/>
    <path class="cls-11" d="M88.93,14.27c-1.24-.25-2.49-.57-3.62-1.14s-2.15-1.44-2.74-2.56c-.12-.23-.21-.55-.02-.74.19-.18.5-.08.74.03,2.12,1.04,4.01,2.54,5.64,4.41Z"/>
    <path class="cls-11" d="M92.3,16.3c-1.52-.7-2.94-1.63-4.49-2.27-.52-.22-1.08-.4-1.64-.36-.21.01-.46.09-.51.3-.02.1,0,.2.04.29.24.59.76,1.02,1.33,1.28s1.2.37,1.83.48c1.16.2,2.33.41,3.44.27Z"/>
    <path class="cls-11" d="M96.56,20.28c-1.52-.62-2.66-2.09-2.89-3.72-.03-.24.06-.59.3-.55.1.02.17.1.23.18.36.46.71.92,1.07,1.37-.25-1.15-.49-2.32-.43-3.5.02-.28.05-.57.18-.82.13-.25.38-.45.66-.46.36-.01.65.28.86.58.76,1.07,1.02,2.41,1.13,3.72.11,1.38.07,2.77-1.11,3.2Z"/>
    <path class="cls-11" d="M100.58,24.01c.04-1.62.08-3.28-.38-4.83-.1-.33-.23-.66-.46-.91-.05-.06-.12-.12-.2-.13-.2-.04-.33.19-.38.39-.39,1.42.11,2.92.61,4.3.19.52.4,1.08.82,1.19Z"/>
    <path class="cls-11" d="M101.69,25.77c-1.37-1.32-2.66-2.92-4.5-3.4-.69-.18-1.43-.18-2.13,0-.06.02-.13.04-.17.09-.08.11.02.26.12.36,1.56,1.56,3.66,2.57,6.68,2.97Z"/>
    <path class="cls-11" d="M106.71,30.04c-1.23-1.19-2.41-2.42-3.54-3.7-.22-.24-.43-.49-.57-.78-.13-.26-.19-.54-.26-.81-.12-.51-.24-1.02-.36-1.53-.1-.41-.19-.85-.04-1.24.65-.03,1.28.31,1.73.78.45.47.75,1.06,1.01,1.66.76,1.74,1.26,3.59,2.04,5.62Z"/>
    <path class="cls-11" d="M108.97,33.91c-.88-1.78-2.63-3.1-4.58-3.45-.28-.05-.63-.05-.78.19-.19.3.1.67.38.89,1.23.99,2.64,1.71,4.04,2.42-2.11-.81-4.22-1.62-6.38-2.26-.53-.16-1.29-.21-1.48.32-.13.35.12.72.39.98.89.86,2.14,1.25,3.35,1.53,2.36.55,4.78.8,5.06-.61Z"/>
    <path class="cls-11" d="M112.91,38.43c.34-2.34.68-4.7.41-7.05-.11-.97-.36-1.98-1.01-2.71-.25-.27-.63-.51-.96-.35-.24.12-.34.4-.41.66-.48,1.86-.28,3.88.54,5.61-.36-.93-.84-1.82-1.41-2.63-.28-.4-.61-.8-1.08-.92-.14-.04-.29-.04-.42.02-.19.09-.29.3-.34.5-.12.56.09,1.14.33,1.66.91,2,2.29,3.78,4.35,5.21Z"/>
    <path class="cls-11" d="M118.46,44.68c-2.07.14-4.2.28-6.17-.38-1.97-.65-3.76-2.29-3.95-4.35-.02-.2-.02-.41.09-.58.17-.27.55-.32.87-.31.57.03,1.13.18,1.63.44.57.29,1.06.72,1.55,1.14,1.81,1.57,3.63,3.14,5.97,4.04Z"/>
    <path class="cls-11" d="M116.56,43.81c.54-1.96,1.48-3.8,2.07-5.75.59-1.95.78-4.15-.15-5.96-.12-.23-.29-.48-.54-.53-.27-.05-.53.13-.75.31-.67.55-1.35,1.19-1.54,2.03-.1.46-.05.94,0,1.4.28,2.38.56,4.76.83,7.15.1.82.24,1.73.07,1.34Z"/>
    <path class="cls-11" d="M122.27,54.07c-1.71-2.19-3.48-4.54-3.81-7.3-.02-.18-.03-.38.09-.51.17-.19.49-.11.72,0,1.68.83,2.5,2.72,3.19,4.46-1.01-2.03-1.34-4.39-.93-6.61.12-.63.31-1.27.76-1.73.45-.45,1.22-.64,1.74-.26.3.22.46.59.58.95.67,2.03.44,4.23.02,6.33-.41,2.09-1,4.17-2.36,4.68Z"/>
    <path class="cls-11" d="M125.97,60.02c-1.16-1.95-1.96-4.1-3.14-6.04-1.18-1.94-2.86-3.72-5.05-4.32-.47-.13-1.15-.06-1.19.43-.01.13.03.25.08.37.8,2.01,2.54,3.47,4.27,4.76,1.73,1.29,3.58,2.54,5.02,4.8Z"/>
    <path class="cls-11" d="M127.43,64.16c-.07-3.62.41-7.43,2.5-10.39.27-.39.68-.8,1.14-.69.5.12.66.75.68,1.27.08,3.1-1.52,5.97-4.32,9.81Z"/>
    <path class="cls-11" d="M126.8,62.09c-2.27-2.09-4.57-4.2-7.28-5.67-.84-.46-1.85-.85-2.73-.48-.21.09-.42.24-.5.46-.11.32.09.65.29.91,1.31,1.67,3.27,2.7,5.25,3.48,1.98.78,4.04,1.37,4.96,1.31Z"/>
    <path class="cls-11" d="M130.29,69.36c.21-2.7,1.26-5.46.46-8.05-.09-.28-.28-.6-.56-.55-.12.02-.22.11-.3.19-.95.97-1.28,2.42-1.17,3.77.11,1.35.6,2.64,1.58,4.63Z"/>
    <path class="cls-11" d="M127.7,65.61c-2.82-2.81-5.75-5.69-9.45-7.13-.42-.17-.94-.3-1.3-.02.08,1.58,1.53,2.69,2.87,3.52,3.11,1.9,6.39,3.51,7.88,3.64Z"/>
    <path class="cls-11" d="M132.35,79.77c.25-2.28.58-4.54,1.01-6.79.33-1.72.81-3.6,2.24-4.61.25-.18.53-.32.84-.35.68-.06,1.27.5,1.57,1.12.89,1.8.09,3.95-.86,5.71-1.34,2.49-2.97,4.82-4.8,4.93Z"/>
    <path class="cls-11" d="M135.05,86.87c.95-2.31,1.53-4.78,1.71-7.27.03-.39.01-.85-.31-1.07-.23-.16-.54-.13-.81-.06-1.08.29-1.97,1.18-2.26,2.26-.37,1.41.22,3.06-.55,4.3-.97-1.89-1.95-3.78-3.24-5.47-.8-1.05-1.8-2.06-3.09-2.33s-2.86.52-2.98,1.83c-.08.96.59,1.81,1.26,2.51,1.6,1.67,3.41,3.15,5.36,4.4,1.47.94,3.19,1.78,4.89.91Z"/>
    <path class="cls-11" d="M131.65,74.65c-1.41-1.34-2.51-2.99-3.84-4.41-1.33-1.42-3.02-2.66-4.96-2.84-.12-.01-.25-.01-.34.06-.17.15-.04.42.1.6,2.61,3.36,6,6.1,9.04,6.58Z"/>
    <path class="cls-12" d="M163.69,123.66c-4.26.52-8.5,1.19-12.71,2.13-2.1.45-4.19,1.01-6.26,1.62-2.07.63-4.11,1.36-6.11,2.18-4,1.67-7.82,3.82-11.22,6.53-3.39,2.7-6.37,5.98-8.42,9.77,2.56-3.45,5.67-6.39,9.1-8.86,3.44-2.47,7.19-4.46,11.1-6.09,1.95-.83,3.95-1.55,5.96-2.21,2.01-.68,4.06-1.26,6.12-1.84,4.11-1.13,8.29-2.11,12.43-3.22Z"/>
    <path class="cls-1" d="M138.26,102.55c-.06.12-.12.24-.18.37.06.31.26.4.18-.37Z"/>
    <path class="cls-11" d="M112.8,120.96c1.63-2.33,2.54-5.16,2.58-8,0-.53-.05-1.13-.48-1.43-.26.32-.61.66-1.02.59-.16-.03-.3-.12-.44-.22-.33-.24-.64-.52-1.02-.7s-.83-.24-1.19-.04c-.36.2-.55.62-.82.93-.35.39-.84.63-1.19,1.01-.69.76-.69,1.96-.28,2.9.41.94,1.14,1.7,1.82,2.47.68.77,1.34,1.62,2.03,2.5Z"/>
    <path class="cls-11" d="M113.04,121.45c.19-1.64.43-3.29.97-4.85.54-1.56,1.41-3.04,2.69-4.09.14-.11.3-.23.48-.23.24,0,.43.21.53.43.37.81-.09,1.73-.55,2.49-1.29,2.17-2.58,4.35-4.12,6.25Z"/>
    <path class="cls-12" d="M113.44,123.82c1.63-1.32,2.65-3.36,2.72-5.45.02-.68-.15-1.51-.8-1.73-.73-.24-1.57.49-2.25.12-.11-.06-.2-.14-.31-.19-.32-.14-.68.04-.96.24-.28.2-.56.45-.9.49-.21.02-.43-.04-.63.04-.37.15-.4.67-.32,1.06.43,2.27,1.92,4.16,3.46,5.41Z"/>
  </g>
  <path class="cls-6" d="M184.84,121.24s-50.26-25.31-50.61,44.23c0,0,.8.46,1.89.01,0,0-4.1-64.67,48.06-42.96l.66-1.28Z"/>
  <g>
    <g>
      <path class="cls-7" d="M60.21,14.93l1.81,1.69.91.84.9.87,1.79,1.76,1.78,1.82.89.91c.3.31.59.63.88.94l1.75,1.89.22.24.22.24.43.49.87.97.87.97c.14.16.29.32.43.49l.43.5c1.13,1.34,2.28,2.66,3.39,4.05l1.68,2.07,1.65,2.12c1.11,1.4,2.17,2.88,3.24,4.32.54.72,1.06,1.47,1.59,2.22l1.57,2.23,1.54,2.28.77,1.14.38.57.37.58,1.49,2.33.75,1.17c.24.39.48.79.72,1.19.96,1.59,1.94,3.16,2.86,4.79l1.4,2.42c.24.4.46.82.68,1.22l.68,1.23c3.6,6.56,6.9,13.34,9.88,20.22,2.97,6.89,5.62,13.89,7.96,20.91l.87,2.63.22.66c.07.22.13.44.2.66l.4,1.32.8,2.64.4,1.32.37,1.32.74,2.64.37,1.32c.12.44.25.88.36,1.32l1.34,5.26c.05.22.11.44.17.66l.15.66.3,1.31.61,2.62c.42,1.75.76,3.49,1.13,5.23l.54,2.61c.09.44.17.87.25,1.3l.24,1.3.48,2.59.24,1.3.12.65.1.64.82,5.15c.07.43.14.86.2,1.29l.17,1.28.34,2.55.34,2.55c.06.43.1.85.15,1.27l.14,1.27.55,5.05-.72-5.11-.18-1.28c-.06-.43-.11-.85-.19-1.28l-.41-2.57-.41-2.57-.2-1.28c-.07-.43-.15-.86-.23-1.29l-.93-5.16-.12-.65-.13-.65-.26-1.3-.52-2.59-.26-1.3c-.09-.43-.17-.86-.27-1.3l-.58-2.6c-.39-1.74-.75-3.47-1.19-5.21l-.64-2.61-.32-1.3-.16-.65c-.05-.22-.12-.44-.17-.65-1.79-6.96-3.85-13.95-6.2-20.9-2.34-6.95-4.98-13.87-7.93-20.67-2.93-6.81-6.18-13.51-9.71-20.01-3.52-6.51-7.35-12.8-11.39-18.84l-1.54-2.24c-.52-.74-1.02-1.5-1.55-2.22l-1.58-2.19-.39-.55c-.13-.18-.26-.36-.4-.54l-.8-1.07-1.61-2.14-1.64-2.09c-1.09-1.41-2.21-2.75-3.32-4.11l-.42-.51c-.14-.17-.28-.33-.42-.5l-.85-.99-.85-.99-.42-.5-.21-.25-.22-.24-1.72-1.93c-.29-.32-.57-.65-.86-.96l-.87-.94-1.75-1.88-1.77-1.83-.88-.92-.89-.89-1.78-1.78Z"/>
      <path class="cls-13" d="M53.16,26.93c-1.82-3.13-3.64-6.27-5.45-9.4-.31-.54-.62-1.26-.22-1.74.71.19,1.33.62,1.9,1.07,3.45,2.76,5.8,6.86,3.77,10.07Z"/>
      <path class="cls-13" d="M63.07,32.69c-2.34-1.03-4.7-1.99-7.09-2.88-.84-.31-1.7-.62-2.6-.69-1.49-.11-3.01.51-4,1.62-.31.35-.59.81-.47,1.26.13.5.66.77,1.14.96,1.72.7,3.57,1.32,5.41,1.05,1.85-.26,3.48-1.39,7.63-1.33Z"/>
      <path class="cls-13" d="M73.71,42.56c-3.61-.41-7.16-1.29-10.54-2.61-.53-.21-1.17-.72-.88-1.21,3.03-.8,6.44-.01,8.81,2.04-1.82-.92-3.27-2.56-3.95-4.48,2.04.05,3.73,1.52,5.22,2.91-1.69-2.35-2.95-5.01-3.73-7.8-.26-.93-.34-2.18.53-2.62.84-.43,1.8.33,2.36,1.1,1.88,2.57,2.59,5.78,3.25,8.9.3,1.43.61,2.93-1.07,3.78Z"/>
      <path class="cls-13" d="M83.76,50.67c-3.13-1.26-6.29-2.44-9.48-3.54-.6-.21-1.37-.36-1.77.13,1.4,1.84,3.74,2.64,5.95,3.35-.94.23-1.87.53-2.77.89-.71.29-1.51.74-1.58,1.51-.08.74.58,1.35,1.25,1.67,1.68.8,3.69.54,5.42-.17,1.72-.7,3.24-1.81,2.98-3.84Z"/>
      <path class="cls-13" d="M88.62,56.59c-1.32-4.29-2.39-8.65-3.2-13.06-.09-.48-.16-1.01.12-1.41.36-.51,1.16-.51,1.68-.16.52.34.82.92,1.09,1.48,1.69,3.5,3,7.42,2.23,11.22-.33,1.62-1.44,3.48-1.91,1.93Z"/>
      <path class="cls-13" d="M98.29,64.88c-1.81-2.94-3.76-5.8-5.84-8.57-.14-.18-.31-.38-.54-.38-.38,0-.5.52-.47.91.37,3.71,3.93,6.23,5.46,9.63-1.88-1.61-3.98-2.96-6.23-3.99-1.2-.55-2.6-1.01-3.82-.52-.22.09-.44.22-.54.43-.1.2-.07.44-.02.66.38,1.74,1.9,3.02,3.51,3.79,1.61.77,3.38,1.15,5,1.9-1.61-.82-3.49-1.09-5.27-.76-.5.09-1.01.24-1.36.61-.5.53-.5,1.39-.16,2.04.34.64.95,1.1,1.58,1.45,1.41.79,3.08,1.18,4.66.84,2.57-.55,6.73-3.65,4.03-8.04Z"/>
      <path class="cls-13" d="M105.9,81.5c-2.16-.08-4.33-.15-6.47-.44-1.28-.17-2.65-.47-3.51-1.44-.86-.97-.8-2.8.39-3.3.71-.3,1.53-.04,2.23.28,2.07.92,3.93,2.3,5.43,4-1.08-1.29-2.01-2.74-2.41-4.38s-.21-3.46.79-4.82c.18-.25.41-.49.71-.55.62-.14,1.11.51,1.39,1.08,1.2,2.41,2.01,5.02,2.4,7.69.19,1.34.26,2.77-.94,1.86Z"/>
      <path class="cls-13" d="M115.44,100.72c.98-3.9,1.78-7.85,2.37-11.83.07-.45.11-.97-.21-1.29-.34-.35-.94-.28-1.32.02s-.58.76-.76,1.21c-.84,2.15-1.37,4.43-1.58,6.73-.08.89-.02,1.95.73,2.43-1.17-2.19-2.43-4.34-3.77-6.43-.56-.87-1.52-1.86-2.45-1.4-.76.38-.81,1.44-.65,2.27.51,2.68,2.09,5.15,4.31,6.74-2.87-1.47-4.94-4.36-8.02-5.3-.88-.27-1.93-.33-2.62.28,1.51,2.53,3.88,4.46,6.5,5.81,2.62,1.35,5.47,2.16,7.45.78Z"/>
      <path class="cls-13" d="M121.27,114.69c.43-3.67,1.03-7.32,1.82-10.93.25-1.13.55-2.33,1.42-3.09.87-.76,2.48-.75,2.97.29.21.45.17.98.09,1.48-.87,4.99-5.73,8.91-6.31,12.25Z"/>
      <path class="cls-13" d="M119.15,109.4c-2.43-2.31-5.05-4.41-7.84-6.26-1.23-.82-2.54-1.61-4.01-1.75-.89-.09-1.94.19-2.28,1.01-.24.6-.03,1.29.3,1.84.94,1.56,2.7,2.4,4.39,3.07,3.77,1.5,7.71,2.58,9.44,2.1Z"/>
      <path class="cls-11" d="M48.44,23.23c-1.75-.18-3.51-.45-5.15-1.09-1.64-.64-3.16-1.69-4.11-3.17-.2-.31-.36-.73-.13-1.01.24-.28.68-.18,1.02-.05,3.06,1.15,5.87,2.97,8.37,5.32Z"/>
      <path class="cls-11" d="M53.34,25.58c-2.2-.75-4.27-1.85-6.49-2.52-.75-.23-1.54-.41-2.32-.28-.29.05-.63.19-.67.48-.02.14.04.28.1.4.4.78,1.18,1.3,2.01,1.59.83.28,1.71.35,2.58.42,1.63.12,3.27.25,4.78-.08Z"/>
      <path class="cls-11" d="M59.76,30.49c-2.18-.66-3.95-2.53-4.48-4.75-.08-.33,0-.82.34-.8.14,0,.25.12.35.22l1.66,1.75c-.49-1.56-.99-3.14-1.06-4.77-.02-.39,0-.79.14-1.16.15-.36.47-.68.85-.72.49-.06.94.3,1.26.68,1.19,1.37,1.73,3.19,2.05,4.98.34,1.89.47,3.81-1.11,4.57Z"/>
      <path class="cls-11" d="M65.81,35.11c-.16-2.24-.32-4.53-1.18-6.61-.18-.44-.4-.88-.75-1.2-.08-.08-.18-.15-.29-.16-.28-.02-.43.31-.48.59-.35,2.01.54,4.01,1.41,5.85.33.7.69,1.43,1.29,1.53Z"/>
      <path class="cls-11" d="M67.56,37.39c-2.07-1.64-4.06-3.68-6.66-4.09-.98-.16-2-.06-2.94.27-.08.03-.17.07-.22.14-.1.16.06.36.21.48,2.36,1.94,5.39,3.05,9.61,3.2Z"/>
      <path class="cls-11" d="M75.06,42.6c-1.85-1.47-3.65-3.02-5.38-4.63-.33-.31-.66-.62-.9-1-.21-.34-.34-.71-.47-1.09-.23-.69-.47-1.37-.7-2.06-.19-.55-.38-1.15-.22-1.71.89-.13,1.8.26,2.49.84.68.59,1.17,1.37,1.61,2.16,1.28,2.3,2.21,4.78,3.57,7.48Z"/>
      <path class="cls-11" d="M78.69,47.63c-1.45-2.34-4.04-3.93-6.78-4.15-.39-.03-.87,0-1.04.36-.22.44.23.91.64,1.18,1.82,1.2,3.87,2,5.89,2.8-3.02-.83-6.04-1.66-9.11-2.27-.76-.15-1.8-.12-1.99.63-.13.5.26.98.67,1.3,1.35,1.07,3.12,1.44,4.83,1.66,3.33.44,6.7.47,6.89-1.51Z"/>
      <path class="cls-11" d="M84.73,53.34c.16-3.27.31-6.58-.38-9.77-.29-1.33-.76-2.69-1.76-3.61-.37-.34-.94-.62-1.37-.35-.31.2-.41.6-.47.96-.41,2.62.13,5.38,1.49,7.66-.63-1.23-1.4-2.39-2.29-3.44-.43-.51-.95-1.02-1.61-1.13-.19-.03-.4-.02-.57.08-.25.15-.37.45-.4.74-.09.79.28,1.56.68,2.25,1.52,2.63,3.66,4.91,6.69,6.6Z"/>
      <path class="cls-11" d="M93.22,61.22c-2.83.47-5.75.94-8.56.31-2.8-.63-5.49-2.65-6.02-5.47-.05-.27-.08-.57.05-.81.2-.4.72-.52,1.16-.54.79-.03,1.58.1,2.31.39.83.33,1.56.85,2.29,1.36,2.71,1.92,5.42,3.84,8.78,4.77Z"/>
      <path class="cls-11" d="M90.49,60.27c.48-2.78,1.54-5.43,2.08-8.2.55-2.77.52-5.82-1-8.2-.2-.31-.46-.62-.82-.66-.38-.04-.71.25-.99.53-.85.85-1.7,1.82-1.85,3.01-.08.65.06,1.3.2,1.93.7,3.25,1.4,6.5,2.1,9.74.24,1.12.56,2.35.28,1.84Z"/>
      <path class="cls-11" d="M99.73,73.66c-2.65-2.8-5.41-5.79-6.24-9.55-.05-.24-.09-.52.06-.72.21-.29.66-.22.99-.09,2.42.92,3.81,3.42,4.99,5.73-1.67-2.66-2.44-5.87-2.17-9,.08-.88.25-1.8.81-2.49s1.6-1.05,2.36-.6c.45.27.72.75.93,1.23,1.19,2.7,1.17,5.78.88,8.72-.29,2.94-.82,5.89-2.62,6.76Z"/>
      <path class="cls-11" d="M105.63,81.36c-1.85-2.54-3.25-5.39-5.13-7.9-1.89-2.51-4.44-4.74-7.54-5.28-.66-.11-1.6.08-1.59.75,0,.18.08.34.16.5,1.37,2.66,3.96,4.45,6.53,5.99,2.56,1.54,5.27,3.03,7.57,5.94Z"/>
      <path class="cls-11" d="M108.2,86.88c-.58-4.99-.43-10.3,2.05-14.66.32-.57.83-1.19,1.48-1.11.71.09,1.02.95,1.11,1.66.53,4.26-1.29,8.44-4.64,14.11Z"/>
      <path class="cls-11" d="M107.05,84.1c-3.41-2.58-6.86-5.19-10.8-6.85-1.22-.52-2.66-.93-3.83-.3-.28.15-.55.38-.63.7-.11.45.21.88.53,1.22,2.03,2.13,4.88,3.28,7.71,4.09,2.83.81,5.76,1.35,7.02,1.14Z"/>
      <path class="cls-11" d="M112.84,93.67c-.07-3.76,1.01-7.7-.44-11.16-.15-.37-.47-.79-.85-.68-.16.04-.28.18-.39.31-1.18,1.47-1.44,3.51-1.11,5.36.33,1.85,1.18,3.57,2.8,6.18Z"/>
      <path class="cls-11" d="M108.76,88.84c-4.26-3.49-8.68-7.07-13.99-8.57-.61-.17-1.34-.29-1.79.15.31,2.16,2.47,3.51,4.43,4.46,4.54,2.21,9.28,3.99,11.35,3.96Z"/>
      <path class="cls-11" d="M117.08,107.74c.04-3.17.2-6.34.49-9.51.22-2.42.63-5.07,2.47-6.66.32-.28.69-.52,1.11-.59.93-.17,1.81.53,2.31,1.33,1.46,2.36.65,5.43-.42,7.99-1.51,3.62-3.45,7.05-5.96,7.44Z"/>
      <path class="cls-11" d="M121.75,117.17c1-3.32,1.48-6.8,1.39-10.26-.01-.54-.09-1.17-.56-1.43-.34-.19-.76-.11-1.12.03-1.45.54-2.56,1.89-2.81,3.42-.33,2,.72,4.19-.19,6-1.6-2.47-3.2-4.95-5.2-7.11-1.24-1.34-2.75-2.6-4.57-2.8-1.81-.21-3.88,1.1-3.86,2.92.01,1.34,1.06,2.42,2.08,3.29,2.44,2.09,5.12,3.89,7.98,5.35,2.15,1.1,4.63,2.03,6.87.6Z"/>
      <path class="cls-11" d="M115.43,100.78c-2.13-1.66-3.86-3.78-5.89-5.56-2.03-1.78-4.52-3.27-7.23-3.25-.16,0-.34.02-.45.13-.21.23,0,.59.22.81,4.05,4.28,9.09,7.61,13.35,7.87Z"/>
    </g>
    <g>
      <path class="cls-7" d="M8.93,57.69l2.08-.23.36-.04.88-.1h0l.34-.04,1.22-.1.49-.04s0,0,0,0l.45-.04h0l.6-.05h0l.91-.08,2.45-.13,1.22-.07c.41-.02.82-.02,1.23-.03h.13s0,0,0,0l1.55-.04.77-.02h.31s.31,0,.31,0h.61s.92,0,.92,0h.3s1.23.01,1.23.01c.2,0,.41,0,.61,0h.3s0,.01,0,.01h.21s0,.01,0,0h.1c1.63.08,3.26.1,4.89.24l.34.02s0,0,0,0l2.1.15h.06s2.37.26,2.37.26l.89.09h.02s.3.03.3.03c.2.02.4.04.61.08l.52.07h.09s2.42.34,2.42.34c.1.01.19.02.29.04,0,0,0,0,0,0,.2.03.4.06.59.09.51.08,1.02.18,1.52.26l2.41.42c.82.16,1.65.33,2.47.51.61.13,1.22.27,1.83.41.45.1.9.21,1.35.32,0,0,0,0,0,0,.79.19,1.58.39,2.36.6h0c1.16.31,2.32.63,3.47.97h0c.31.09.62.18.93.28.45.14.9.28,1.35.42h0c1.47.47,2.93.96,4.38,1.49h0c.13.05.25.09.38.14,0,0,0,0,0,0,.08.03.17.06.25.09.03.01.06.02.09.03.03,0,.06.02.08.03.22.08.43.16.65.24,0,0,0,0,0,0,.4.15.79.3,1.18.45.24.09.48.18.72.28h0c.45.18.9.36,1.35.54,1,.41,2,.83,2.99,1.26h0c.18.08.36.16.54.24h0c.3.13.61.27.91.41,2,.91,3.98,1.87,5.93,2.88.51.26,1.02.54,1.52.81h0c.19.1.38.2.57.31.4.22.8.44,1.19.66.83.46,1.65.93,2.47,1.41h0c.6.35,1.2.7,1.79,1.06.99.6,1.98,1.22,2.96,1.85.81.52,1.62,1.05,2.42,1.59,2.28,1.53,4.51,3.13,6.69,4.79,3.21,2.43,6.32,5,9.33,7.67-.26-.81-.52-1.62-.78-2.43l-.08-.08-.92-.83-.94-.8-1.89-1.59-.94-.8c-.16-.13-.32-.27-.48-.4l-.49-.38-1.95-1.52c-2.26-1.74-4.58-3.42-6.94-5.02h0c-1.85-1.25-3.74-2.46-5.66-3.62h0c-.2-.12-.41-.25-.61-.37-.77-.46-1.55-.92-2.33-1.36-.31-.18-.61-.35-.92-.52-.55-.31-1.11-.61-1.66-.9-.91-.49-1.82-.96-2.74-1.42,0,0,0,0,0,0-.56-.28-1.12-.56-1.68-.84,0,0,0,0,0,0-1.29-.62-2.59-1.23-3.9-1.81-.63-.28-1.26-.56-1.9-.82h0c-.43-.18-.85-.36-1.28-.53-.58-.24-1.17-.47-1.75-.7-1.01-.4-2.03-.78-3.06-1.15l-1.16-.42c-.39-.14-.77-.29-1.17-.4l-1.35-.42-.67-.21-.34-.11c-.76-.25-1.52-.48-2.29-.69-.82-.23-1.64-.45-2.46-.68-.1-.03-.21-.06-.31-.08,0,0,0,0,0,0-.29-.08-.58-.16-.88-.24l-1.2-.28-.47-.11-1.72-.4-.22-.05h0s0,0,0,0l-.6-.14-.61-.12-.81-.16-.4-.08-.3-.06-.9-.17-.92-.18-.3-.06-2.44-.38c-.4-.06-.79-.13-1.19-.19h0c-.35-.05-.69-.1-1.04-.14-.07,0-.14-.02-.22-.02-.08,0-.17-.02-.25-.03h0c-1.55-.18-3.09-.4-4.65-.49l-1.38-.11-1.08-.09-1.25-.06h0l-.46-.02-.75-.04c-1.46-.09-2.92-.09-4.37-.11h0c-.18,0-.37,0-.55,0h-.57s-.04,0-.04,0c-.21,0-.41,0-.62.01l-1.23.03h-.02l-1,.02h-.22s-.62.02-.62.02h-.31s-.31.02-.31.02h-.04s-.03,0-.03,0l-2.4.14c-.13,0-.25.01-.38.02-.28.01-.57.03-.85.05l-1.23.11-1.02.09-1.43.13-.95.12-.7.09-.35.04h0l-.44.05-.52.07h0l-.7.09-1.21.19-.58.09s0,0,0,0l-1.84.29Z"/>
      <path class="cls-13" d="M15.4,57.36c-2.44-.94-4.88-1.87-7.33-2.81-.42-.16-.92-.43-.91-.88.48-.22,1.03-.26,1.56-.26,3.19-.02,6.37,1.22,6.68,3.95Z"/>
      <path class="cls-13" d="M23.57,56.1c-1.78.48-3.54,1.01-5.29,1.6-.62.21-1.24.42-1.77.79-.88.61-1.46,1.65-1.52,2.72-.02.34.04.72.31.93.3.22.72.13,1.08.03,1.29-.39,2.6-.88,3.52-1.86.92-.99,1.33-2.36,3.68-4.2Z"/>
      <path class="cls-13" d="M34.02,56.83c-2.21,1.4-4.61,2.52-7.1,3.31-.39.13-.98.13-1.04-.28,1.34-1.82,3.61-2.93,5.88-2.85-1.44.31-3,.04-4.25-.73,1.17-.9,2.78-.84,4.25-.73-2.01-.56-3.93-1.47-5.63-2.69-.57-.41-1.18-1.07-.89-1.71.28-.62,1.16-.63,1.82-.45,2.22.59,4.07,2.08,5.86,3.53.82.67,1.67,1.37,1.11,2.61Z"/>
      <path class="cls-13" d="M43.35,56.83c-2.33.71-4.64,1.48-6.93,2.31-.43.16-.94.42-.93.88,1.62.4,3.3-.21,4.86-.82-.43.56-.81,1.14-1.15,1.75-.27.48-.51,1.1-.21,1.57.29.45.94.5,1.46.37,1.3-.31,2.32-1.37,2.97-2.55s1-2.48-.07-3.51Z"/>
      <path class="cls-13" d="M48.76,57.95c-2.68-1.81-5.26-3.78-7.72-5.89-.27-.23-.55-.5-.57-.85-.03-.45.42-.81.87-.85.45-.04.88.15,1.28.34,2.53,1.2,5.04,2.81,6.34,5.29.55,1.06.77,2.61-.2,1.95Z"/>
      <path class="cls-13" d="M57.94,58.22c-2.35-.83-4.74-1.55-7.16-2.17-.16-.04-.35-.08-.48.03-.21.18-.05.52.15.72,1.89,1.92,5.03,1.72,7.43,2.93-1.79-.06-3.58.14-5.31.58-.93.24-1.92.61-2.38,1.44-.08.15-.15.32-.11.49.04.16.16.28.29.38,1,.81,2.44.84,3.69.54,1.25-.3,2.42-.88,3.67-1.19-1.28.27-2.46.97-3.31,1.96-.24.28-.46.6-.49.96-.04.52.35,1.01.83,1.22.48.21,1.03.19,1.55.1,1.15-.2,2.27-.74,3-1.64,1.19-1.48,2.13-5.1-1.38-6.34Z"/>
      <path class="cls-13" d="M69.75,64.11c-1.25.94-2.5,1.88-3.84,2.69-.8.48-1.7.94-2.62.78s-1.72-1.21-1.27-2.03c.26-.49.84-.71,1.38-.85,1.58-.42,3.25-.49,4.86-.21-1.19-.23-2.37-.63-3.34-1.37-.96-.74-1.69-1.85-1.74-3.06,0-.22,0-.46.15-.63.29-.36.86-.21,1.27-.02,1.77.81,3.41,1.91,4.83,3.23.71.66,1.4,1.44.32,1.47Z"/>
      <path class="cls-13" d="M83.83,70.59c-1.22-2.64-2.56-5.22-4.03-7.72-.17-.28-.38-.59-.7-.63-.35-.04-.65.27-.73.61s.02.69.12,1.02c.5,1.59,1.23,3.11,2.16,4.5.36.53.87,1.11,1.51,1.03-1.65-.7-3.33-1.34-5.03-1.91-.71-.24-1.7-.35-2.01.33-.26.55.2,1.17.66,1.57,1.5,1.28,3.51,1.95,5.48,1.83-2.28.48-4.75-.21-6.91.66-.61.25-1.23.69-1.35,1.34,1.99.74,4.2.74,6.28.32s4.05-1.27,4.54-2.94Z"/>
      <path class="cls-13" d="M93.43,75.79c-1.42-2.25-2.74-4.58-3.93-6.96-.37-.75-.74-1.56-.6-2.38.14-.82,1.05-1.55,1.8-1.18.33.16.54.47.72.79,1.77,3.2.82,7.6,2.01,9.74Z"/>
      <path class="cls-13" d="M89.84,73.78c-2.41-.2-4.84-.18-7.24.03-1.06.1-2.16.25-3.04.83-.54.35-1.01.99-.82,1.6.13.45.57.74,1,.89,1.23.45,2.6.13,3.86-.26,2.8-.87,5.5-2.05,6.25-3.1Z"/>
      <path class="cls-11" d="M11.07,57.42c-1.06.69-2.17,1.34-3.39,1.72s-2.54.48-3.75.08c-.25-.08-.54-.25-.53-.51,0-.26.3-.41.55-.49,2.24-.74,4.64-.99,7.11-.8Z"/>
      <path class="cls-11" d="M14.89,56.51c-1.58.57-3.24.89-4.79,1.52-.52.21-1.05.47-1.43.89-.14.16-.27.39-.16.58.05.09.15.14.24.18.58.25,1.26.2,1.85-.02s1.12-.58,1.64-.94c.97-.67,1.95-1.34,2.65-2.21Z"/>
      <path class="cls-11" d="M20.72,56.37c-1.52.62-3.37.37-4.67-.63-.19-.15-.37-.46-.17-.6.08-.06.19-.05.29-.03.57.08,1.15.16,1.72.23-.98-.65-1.98-1.31-2.76-2.2-.19-.21-.36-.44-.44-.71-.08-.27-.04-.59.15-.79.25-.26.66-.25,1.02-.19,1.29.23,2.42,1.01,3.41,1.87,1.05.91,1.99,1.93,1.45,3.07Z"/>
      <path class="cls-11" d="M26.21,56.22c-1.1-1.19-2.23-2.4-3.66-3.18-.3-.17-.62-.31-.97-.33-.08,0-.17,0-.24.04-.17.11-.1.37,0,.55.72,1.29,2.12,2.01,3.44,2.65.5.24,1.04.49,1.42.28Z"/>
      <path class="cls-11" d="M28.23,56.7c-1.91.01-3.94-.23-5.6.72-.62.36-1.15.87-1.53,1.48-.03.05-.07.11-.06.18.02.14.2.17.33.18,2.21.02,4.41-.73,6.85-2.56Z"/>
      <path class="cls-11" d="M34.8,56.24c-1.71.01-3.42-.04-5.12-.16-.32-.02-.65-.05-.96-.16-.27-.09-.51-.25-.75-.4-.44-.28-.89-.56-1.33-.84-.36-.22-.73-.47-.9-.86.44-.48,1.13-.67,1.78-.65.65.02,1.28.24,1.88.48,1.76.71,3.41,1.68,5.39,2.59Z"/>
      <path class="cls-11" d="M39.12,57.41c-1.87-.66-4.05-.38-5.69.74-.23.16-.48.4-.42.68.08.35.54.4.89.37,1.56-.15,3.08-.63,4.58-1.1-2.07.9-4.14,1.8-6.14,2.85-.49.26-1.07.75-.83,1.26.16.34.59.43.97.43,1.24,0,2.4-.61,3.47-1.25,2.07-1.26,3.98-2.77,3.19-3.97Z"/>
      <path class="cls-11" d="M45.1,57.89c-1.39-1.91-2.81-3.84-4.64-5.32-.76-.62-1.64-1.17-2.62-1.23-.37-.02-.81.08-.93.43-.09.25.04.52.17.75.96,1.66,2.51,2.96,4.31,3.63-.91-.41-1.87-.71-2.85-.9-.47-.09-1-.14-1.41.1-.12.07-.24.17-.29.3-.08.2,0,.42.11.6.31.49.86.75,1.4.96,2.05.79,4.28,1.1,6.75.68Z"/>
      <path class="cls-11" d="M53.44,58.47c-1.38,1.55-2.81,3.14-4.67,4.05-1.86.91-4.29,1-5.86-.35-.15-.13-.3-.28-.34-.48-.07-.32.17-.62.41-.83.43-.37.93-.66,1.47-.83.61-.19,1.26-.23,1.9-.27,2.39-.15,4.79-.3,7.09-1.3Z"/>
      <path class="cls-11" d="M51.47,59.17c-.99-1.78-1.6-3.75-2.55-5.55-.95-1.8-2.34-3.51-4.28-4.15-.25-.08-.54-.14-.76,0-.23.15-.29.47-.32.74-.09.86-.13,1.79.33,2.53.25.4.62.7.99,1,1.87,1.51,3.73,3.01,5.6,4.52.64.52,1.38,1.07.99.91Z"/>
      <path class="cls-11" d="M62.73,62.5c-2.76-.37-5.66-.8-7.83-2.54-.14-.11-.29-.25-.29-.43,0-.26.27-.42.52-.5,1.78-.58,3.69.19,5.4.95-2.14-.74-4.03-2.19-5.3-4.07-.36-.53-.67-1.12-.67-1.76,0-.64.42-1.31,1.06-1.4.37-.05.75.1,1.08.27,1.89.98,3.28,2.72,4.45,4.5,1.17,1.78,2.21,3.68,1.59,4.99Z"/>
      <path class="cls-11" d="M69.54,64.16c-2.19-.58-4.27-1.56-6.47-2.11-2.2-.56-4.65-.65-6.63.45-.42.24-.86.77-.55,1.14.08.1.2.16.32.21,1.97.88,4.24.7,6.38.41,2.14-.29,4.33-.69,6.95-.09Z"/>
      <path class="cls-11" d="M73.48,66.09c-2.59-2.54-4.91-5.59-5.49-9.17-.08-.47-.07-1.05.33-1.29.44-.27,1,.07,1.37.43,2.23,2.15,3.1,5.32,3.79,10.03Z"/>
      <path class="cls-11" d="M71.58,65.05c-3.08.1-6.21.2-9.17,1.05-.92.26-1.91.69-2.29,1.57-.09.21-.14.47-.04.68.14.3.52.4.85.45,2.11.28,4.23-.37,6.18-1.19,1.96-.83,3.84-1.85,4.46-2.54Z"/>
      <path class="cls-11" d="M79.16,67.8c-1.74-2.08-2.92-4.78-5.31-6.07-.25-.14-.62-.23-.79,0-.07.1-.08.23-.08.35,0,1.36.78,2.62,1.8,3.51,1.02.89,2.28,1.47,4.37,2.21Z"/>
      <path class="cls-11" d="M74.69,66.94c-3.98-.03-8.08-.04-11.74,1.52-.42.18-.88.45-.94.9,1.16,1.07,2.97.85,4.51.5,3.55-.81,7.02-1.96,8.17-2.92Z"/>
      <path class="cls-11" d="M87.93,73.79c-1.42-1.8-2.76-3.65-4.03-5.56-.97-1.46-1.94-3.13-1.63-4.86.05-.3.15-.6.35-.84.45-.52,1.26-.53,1.9-.3,1.89.66,2.83,2.75,3.39,4.68.79,2.72,1.26,5.53.02,6.88Z"/>
      <path class="cls-11" d="M94.82,76.97c-.94-2.32-2.25-4.49-3.87-6.39-.25-.3-.58-.61-.97-.55-.28.05-.48.29-.62.53-.57.96-.58,2.22-.03,3.19.72,1.27,2.3,2.03,2.61,3.46-2.02-.66-4.04-1.33-6.14-1.64-1.3-.19-2.72-.21-3.84.49s-1.68,2.37-.84,3.39c.61.75,1.69.88,2.66.91,2.32.07,4.64-.14,6.91-.61,1.71-.36,3.52-.96,4.13-2.78Z"/>
      <path class="cls-11" d="M83.84,70.62c-1.95.03-3.88-.38-5.83-.46-1.95-.08-4.02.21-5.53,1.45-.09.07-.19.16-.19.28-.02.22.27.33.49.36,4.21.57,8.56.16,11.07-1.63Z"/>
    </g>
    <path class="cls-4" d="M129.43,166.91c-1.16-4.89-2.36-9.86-4.88-14.21-1.68-2.9-3.92-5.44-6.29-7.8-4.37-4.36-9.26-8.2-13.47-12.71-3.52-3.77-6.57-8.02-10.49-11.37,7.07,10.37,14.13,20.75,21.2,31.12,2.21,3.25,4.43,6.5,7.03,9.44,1.32,1.49,2.78,2.93,4.62,3.7,1.73.73,4.11,1.28,2.29,1.83Z"/>
    <path class="cls-4" d="M118.74,108.49c-3.91-15.5-1.36-32.51,6.9-46.19-.36,6.93-.73,13.91-2.29,20.68-1.05,4.54-2.64,9.04-2.57,13.69.07,4.64,1.64,9.88-2.04,11.82Z"/>
    <path class="cls-4" d="M125.64,140.9c3.26-12.35,7.16-24.52,11.68-36.47-.86,9.45-2.83,18.8-5.88,27.79-.53,1.55-1.1,3.12-2.08,4.43-1.39,1.86-3.53,3.11-3.72,4.25Z"/>
    <path class="cls-4" d="M130.08,166.54c2.78-10,6.96-19.6,12.39-28.44,4-6.51,9.48-13.11,17.05-14.16-7.15,14.69-14.89,30.08-29.45,42.6Z"/>
    <path class="cls-4" d="M128.16,154.4c3.26-13.86,8.74-27.2,16.15-39.35.09,4.6-.32,9.24-1.72,13.62-1.28,3.99-3.35,7.66-5.41,11.31-1.93,3.42-3.87,6.84-5.8,10.27-.48.85-1.21,1.83-3.22,4.16Z"/>
    <path class="cls-12" d="M99.62,114.2c2.99,2.52,5.88,5.11,8.63,7.84,1.36,1.38,2.71,2.76,4,4.21,1.3,1.43,2.56,2.9,3.77,4.41,2.44,3.01,4.78,6.11,7.15,9.2.59.77,1.17,1.54,1.72,2.33.55.79,1.06,1.6,1.5,2.44.89,1.68,1.48,3.56,1.36,5.52.22-.95.24-1.96.1-2.95-.14-.99-.44-1.95-.81-2.87-.77-1.84-1.84-3.53-2.95-5.14-2.21-3.21-4.47-6.41-6.94-9.45-1.25-1.51-2.54-3-3.89-4.42-1.36-1.41-2.76-2.8-4.23-4.1-2.93-2.61-6.06-4.99-9.4-7.02Z"/>
    <path class="cls-12" d="M141.03,83.19c-2.68,3.36-5.24,6.8-7.58,10.41-1.19,1.8-2.28,3.65-3.33,5.54-1.04,1.9-1.98,3.84-2.84,5.83-1.69,3.99-2.91,8.21-3.44,12.52-.54,4.3-.36,8.73.83,12.87-.59-4.26-.43-8.53.3-12.7.73-4.17,2.02-8.22,3.66-12.12.81-1.96,1.73-3.87,2.71-5.76.96-1.89,2.02-3.74,3.08-5.59,2.15-3.69,4.44-7.31,6.62-11.01Z"/>
    <path class="cls-1" d="M108.09,85.92c.04.13.08.26.13.39.26.18.46.11-.13-.39Z"/>
    <path class="cls-11" d="M102.81,116.89c-.47-2.81-1.8-5.46-3.76-7.52-.36-.38-.83-.77-1.35-.69.03.41.03.9-.31,1.13-.14.09-.3.12-.47.15-.41.06-.82.08-1.21.21s-.76.41-.87.81c-.12.4.04.82.06,1.24.03.52-.16,1.03-.14,1.56.03,1.03.88,1.88,1.83,2.27.95.39,2,.41,3.03.49,1.02.07,2.09.22,3.2.36Z"/>
    <path class="cls-11" d="M103.32,117.07c-1.01-1.31-2-2.65-2.71-4.14-.71-1.5-1.12-3.16-.94-4.81.02-.18.05-.37.18-.49.17-.17.45-.15.68-.07.83.32,1.14,1.3,1.35,2.16.6,2.46,1.2,4.91,1.43,7.35Z"/>
    <path class="cls-12" d="M105.26,118.49c.24-2.08-.46-4.25-1.87-5.79-.46-.5-1.17-.97-1.78-.67-.69.34-.78,1.45-1.52,1.66-.12.03-.24.04-.35.08-.32.12-.46.5-.52.85-.06.34-.08.71-.3.98-.14.16-.34.27-.42.47-.16.37.18.76.51.99,1.89,1.32,4.29,1.63,6.26,1.44Z"/>
    <path class="cls-11" d="M138.07,86.49c1.58-4.43,2.77-8.98,4.23-13.45.21-.65.44-1.32.87-1.85.43-.54,1.11-.92,1.79-.82.83.13,1.38.91,1.83,1.62.69,1.09,1.4,2.25,1.48,3.54.02.35,0,.72.17,1.02.13.22.35.37.56.51.48.32.95.63,1.43.95.17.11.34.24.39.43.04.18-.05.37-.15.53-.88,1.42-2.5,2.19-4.08,2.71-1.58.52-3.25.88-4.66,1.78-1.43.92-2.48,2.33-3.86,3.03Z"/>
    <path class="cls-11" d="M136.92,88.33c1.63-1.12,2.66-2.95,4.3-4.06,1.06-.72,2.32-1.1,3.57-1.42,2.47-.63,5.29-1,7.42.42-.85,1.32-2.59,1.66-4.15,1.81-3.05.3-6.28.36-11.13,3.24Z"/>
    <path class="cls-11" d="M137.46,89.01c3.06-4.2,5.03-9.19,5.65-14.34.12-1.01.14-2.18-.6-2.89-.17-.16-.4-.29-.63-.24-.18.05-.31.2-.43.35-3.27,4.32-3.71,10.09-4,17.11Z"/>
    <path class="cls-12" d="M134.65,92.58c.34-4.62.7-9.29,2.12-13.7.26-.82.79-1.79,1.65-1.73.66.05,1.1.7,1.36,1.31.32.72.55,1.48.69,2.26.05.3.12.64.39.78.17.09.37.08.56.06.66-.05,1.4,0,1.85.49.44.48.44,1.27.92,1.71.35.33.94.47,1.05.93.09.37-.2.72-.48.98-2.83,2.64-6.78,3.81-10.11,6.89Z"/>
  </g>
  <path class="cls-13" d="M120.02,145.3c.98-3.9,1.78-7.85,2.37-11.83.07-.45.11-.97-.21-1.29-.34-.35-.94-.28-1.32.02s-.58.76-.76,1.21c-.84,2.15-1.37,4.43-1.58,6.73-.08.89-.02,1.95.73,2.43-1.17-2.19-2.43-4.34-3.77-6.43-.56-.87-1.52-1.86-2.45-1.4-.76.38-.81,1.44-.65,2.27.51,2.68,2.09,5.15,4.31,6.74-2.87-1.47-4.94-4.36-8.02-5.3-.88-.27-1.93-.33-2.62.28,1.51,2.53,3.88,4.46,6.5,5.81,2.62,1.35,5.47,2.16,7.45.78Z"/>
  <path class="cls-13" d="M125.85,159.27c.43-3.67,1.03-7.32,1.82-10.93.25-1.13.55-2.33,1.42-3.09.87-.76,2.48-.75,2.97.29.21.45.17.98.09,1.48-.87,4.99-5.73,8.91-6.31,12.25Z"/>
  <path class="cls-13" d="M123.73,153.97c-2.43-2.31-5.05-4.41-7.84-6.26-1.23-.82-2.54-1.61-4.01-1.75-.89-.09-1.94.19-2.28,1.01-.24.6-.03,1.29.3,1.84.94,1.56,2.7,2.4,4.39,3.07,3.77,1.5,7.71,2.58,9.44,2.1Z"/>
  <path class="cls-11" d="M121.65,152.32c.04-3.17.2-6.34.49-9.51.22-2.42.63-5.07,2.47-6.66.32-.28.69-.52,1.11-.59.93-.17,1.81.53,2.31,1.33,1.46,2.36.65,5.43-.42,7.99-1.51,3.62-3.45,7.05-5.96,7.44Z"/>
  <path class="cls-11" d="M126.32,161.75c1-3.32,1.48-6.8,1.39-10.26-.01-.54-.09-1.17-.56-1.43-.34-.19-.76-.11-1.12.03-1.45.54-2.56,1.89-2.81,3.42-.33,2,.72,4.19-.19,6-1.6-2.47-3.2-4.95-5.2-7.11-1.24-1.34-2.75-2.6-4.57-2.8-1.81-.21-3.88,1.1-3.86,2.92.01,1.34,1.06,2.42,2.08,3.29,2.44,2.09,5.12,3.89,7.98,5.35,2.15,1.1,4.63,2.03,6.87.6Z"/>
  <path class="cls-11" d="M120,145.35c-2.13-1.66-3.86-3.78-5.89-5.56-2.03-1.78-4.52-3.27-7.23-3.25-.16,0-.34.02-.45.13-.21.23,0,.59.22.81,4.05,4.28,9.09,7.61,13.35,7.87Z"/>
  <path class="cls-12" d="M146.07,123.94c-2.68,3.36-5.24,6.8-7.58,10.41-1.19,1.8-2.28,3.65-3.33,5.54-1.04,1.9-1.98,3.84-2.84,5.83-1.69,3.99-2.91,8.21-3.44,12.52-.54,4.3-.36,8.73.83,12.87-.59-4.26-.43-8.53.3-12.7.73-4.17,2.02-8.22,3.66-12.12.81-1.96,1.73-3.87,2.71-5.76.96-1.89,2.02-3.74,3.08-5.59,2.15-3.69,4.44-7.31,6.62-11.01Z"/>
  <path class="cls-11" d="M107.38,161.47c-.47-2.81-1.8-5.46-3.76-7.52-.36-.38-.83-.77-1.35-.69.03.41.03.9-.31,1.13-.14.09-.3.12-.47.15-.41.06-.82.08-1.21.21s-.76.41-.87.81c-.12.4.04.82.06,1.24.03.52-.16,1.03-.14,1.56.03,1.03.88,1.88,1.83,2.27.95.39,2,.41,3.03.49,1.02.07,2.09.22,3.2.36Z"/>
  <path class="cls-11" d="M107.89,161.64c-1.01-1.31-2-2.65-2.71-4.14-.71-1.5-1.12-3.16-.94-4.81.02-.18.05-.37.18-.49.17-.17.45-.15.68-.07.83.32,1.14,1.3,1.35,2.16.6,2.46,1.2,4.91,1.43,7.35Z"/>
  <path class="cls-12" d="M109.84,163.06c.24-2.08-.46-4.25-1.87-5.79-.46-.5-1.17-.97-1.78-.67-.69.34-.78,1.45-1.52,1.66-.12.03-.24.04-.35.08-.32.12-.46.5-.52.85-.06.34-.08.71-.3.98-.14.16-.34.27-.42.47-.16.37.18.76.51.99,1.89,1.32,4.29,1.63,6.26,1.44Z"/>
  <path class="cls-11" d="M152.56,160.86c2.58-1.2,4.78-3.2,6.24-5.64.27-.45.52-1.01.3-1.48-.39.14-.86.27-1.18,0-.13-.11-.2-.26-.27-.41-.16-.38-.3-.77-.53-1.11s-.6-.62-1.01-.62c-.42,0-.78.26-1.17.39-.49.17-1.04.12-1.54.28-.98.31-1.57,1.35-1.69,2.37-.12,1.02.14,2.04.34,3.05.2,1.01.35,2.07.51,3.18Z"/>
  <path class="cls-11" d="M152.53,161.4c.99-1.33,2.02-2.64,3.27-3.72,1.25-1.08,2.75-1.93,4.38-2.19.18-.03.37-.05.52.04.21.12.27.4.25.64-.08.88-.95,1.45-1.72,1.88-2.2,1.24-4.41,2.47-6.7,3.35Z"/>
  <path class="cls-12" d="M151.68,163.65c2.07-.33,3.97-1.58,5.08-3.36.36-.58.62-1.39.17-1.9-.51-.57-1.61-.37-2.01-1.02-.06-.1-.1-.22-.17-.32-.21-.28-.61-.31-.95-.27-.34.04-.71.11-1.03-.03-.19-.09-.35-.25-.56-.28-.4-.06-.68.38-.81.76-.76,2.18-.42,4.57.29,6.41Z"/>
</svg>